<svg width="24" height="24" viewBox="0 0 24 24">
  <path fill-rule="evenodd" d="M4,2.00246167 C4,1.44881738 4.44483697,1 4.9955775,1 L14.0044225,1 C14.5542648,1 15.3127724,1.31277239 15.7057732,1.70577316 L19.2942268,5.29422684 C19.6840146,5.68401459 20,6.45470893 20,6.9999602 L20,22.0000398 C20,22.5523026 19.5553691,23 18.9991283,23 L5.00087166,23 C4.4481055,23 4,22.5605417 4,21.9975383 L4,2.00246167 Z M8.88163099,13.3518624 L5.80545393,15.1078983 L5.80545393,16.3738776 L8.81258961,18.1217459 L9.33423559,17.0272863 L6.89477349,15.7858098 L6.89477349,15.6877985 L9.33423559,14.4299867 L8.88163099,13.3518624 Z M16.1337115,18.1299135 L19.1945461,16.3738776 L19.1945461,15.0997306 L16.1797391,13.36003 L15.6734357,14.4463219 L18.1052265,15.6877985 L18.1052265,15.7858098 L15.6657644,17.0436215 L16.1337115,18.1299135 Z M14.4463666,11.918529 L9.84643233,16.5399623 L12.7265314,16.6012174 L10.2747915,20.363373 L15.7828882,15.2894368 L12.8491269,15.2607714 L14.4463666,11.918529 Z"/>
</svg>
