<svg width="24" height="24" viewBox="0 0 24 24">
  <path fill-rule="evenodd" d="M12.5324326,15.3079193 L12.5296696,15.1632377 L12.8512238,15.0743059 L12.8537283,15.2054509 C13.134651,15.1115254 13.4467785,14.9967694 13.790017,14.8610892 L14.0364007,14.8397676 C14.5457516,14.7947552 14.9271726,14.8942563 15.1782944,15.1311637 L15.1925089,15.2851535 C15.005352,15.8276715 14.7968735,16.1451274 14.5718115,16.2375213 L14.5718115,16.2375213 L13.5270498,17.0666972 C12.7499935,17.5760481 12.3330365,17.8319081 12.2714405,17.8366463 C11.0347839,18.5165705 10.2648348,18.8695626 9.96633147,18.8956224 L9.92131907,18.9003605 C9.95922425,18.7605851 10.5088494,17.635275 11.5749328,15.5173228 C11.8203094,15.4962551 12.1395891,15.426567 12.5324326,15.3079193 Z M9.80461746,19.5197166 C9.85065724,19.5287722 9.89587531,19.5425871 9.94027166,19.5613322 C10.0634635,19.4973672 10.2790493,19.426295 10.5846598,19.3504846 L10.5775526,19.2699361 L10.3311689,19.2912577 C10.3619668,19.2486144 10.5988742,19.1372679 11.0442602,18.9572183 L11.167452,18.9453729 L11.1698211,18.9832781 C10.9589735,19.0022307 10.8428889,19.0638266 10.8168291,19.1751731 C10.8215672,19.2249237 10.8499961,19.2462453 10.9021157,19.2415072 C11.0608437,19.1420061 11.1390231,19.0827792 11.1366541,19.0661957 C11.4375265,19.0093379 12.2690715,18.5734283 13.6312891,17.7608359 L13.6383963,17.8342772 C13.6407653,17.8698133 13.5246807,17.9693144 13.2901424,18.1398877 C12.5983728,18.4810344 12.190892,18.7132037 12.0700692,18.8340264 C11.3214418,19.0946246 10.9494972,19.2557216 10.9566044,19.3196866 C10.2908946,19.5826538 9.85261592,19.7769179 9.64176833,19.8977407 C9.59201777,19.9024788 9.52094555,19.8835263 9.42618259,19.8408829 C9.41433722,19.7058457 9.47593314,19.5968683 9.60623222,19.5092126 C9.64203712,19.5062897 9.67739127,19.505846 9.71229466,19.507951 C9.71181214,19.3869159 9.75391301,19.294742 9.82932658,19.2504755 L9.82932658,19.2504755 L10.0306312,19.2107092 L10.0383737,19.3538677 C9.98804756,19.3618209 9.92223642,19.4174937 9.84094031,19.5129326 L9.80461746,19.5197166 Z M11.9486362,13.089967 C11.9254251,13.2667322 11.8480338,13.3616438 11.7164623,13.36867 L11.6270524,13.3724617 C11.7374999,13.2359617 11.790094,13.1297951 11.7795752,13.0577535 L11.9096528,13.0492283 L11.8355309,12.7693993 L12.0765489,12.7644587 L12.1616141,13.0856012 L11.9486362,13.089967 Z M9.90210779,12.1006296 C9.95476473,12.0619845 10.00855,12.0250317 10.0634635,11.9897715 C10.17481,12.0182004 10.2340368,12.0537365 10.2364059,12.0916417 L10.3216926,12.0845344 C10.9329137,11.6320413 11.5370276,11.3051091 12.1364033,11.1037378 L12.1435105,11.1842863 C12.0321641,11.3501215 11.9563537,11.4354081 11.9160794,11.4401463 C11.9208176,11.4970041 11.9397702,11.5467546 11.9753063,11.589398 C11.9847826,11.6912681 11.7123391,12.3782996 11.1603448,13.6481233 C9.90710462,16.5999896 8.85523574,18.7842759 8,20.196244 C8.00236907,20.2246729 8.01895259,20.2625781 8.04975056,20.3099596 C8.26059815,20.260209 8.39326629,20.2080894 8.45012407,20.1583388 L8.49513648,20.1536007 L8.5022437,20.2341492 L8.58042315,20.227042 L8.66097166,20.1820296 C8.66334074,20.2057203 8.68940055,20.2175657 8.74388926,20.2128276 L8.75099648,20.2933761 C8.7581037,20.3715555 8.71309129,20.4900092 8.61832833,20.6534753 C8.53304166,20.7506074 8.44064778,20.9543477 8.34351574,21.2646964 L8.34588481,21.3026016 L8.42406426,21.2954944 C8.76521092,20.9140735 9.02344,20.5397598 9.20112055,20.1749224 C10.1961317,19.8835263 10.9542354,19.5968683 11.4801698,19.3149485 C12.0084733,19.2699361 12.4112159,19.1301607 12.6860285,18.9003605 L12.6812904,18.8577172 L12.4822881,18.916944 L12.4372757,18.9216822 L12.4325376,18.8790389 C12.8210657,18.819812 13.0887711,18.7345253 13.2380228,18.6160716 C13.9937574,18.0332794 14.5647042,17.6210605 14.9508633,17.3770459 C15.7445031,16.7942537 16.2609613,16.2256759 16.4954996,15.6736816 C16.5381429,15.6642053 16.5807863,15.654729 16.6281677,15.6428837 C16.7023987,15.6397249 16.7055575,15.375968 16.637644,14.8516129 C16.6234296,14.7615881 16.3604624,14.4346559 15.8511115,13.8708163 C15.8416352,13.7618389 16.0216848,13.6031109 16.3888913,13.3970015 L17.4265457,12.4849079 C17.658715,12.1864046 17.7961213,11.7078517 17.8411337,11.0492491 L17.8269192,10.8952593 C17.786645,10.4309207 17.4502364,10.056607 16.8176937,9.76758 C16.44338,9.51408907 15.7705629,9.37905185 14.7992426,9.35773018 C13.9937574,9.42643333 12.9418885,9.71309129 11.6483741,10.2129659 C11.293013,10.471195 10.8879013,10.727055 10.4330391,10.9805459 L10.4401463,11.0610944 C10.4709442,11.0587254 10.5112185,11.0421418 10.5609691,11.013713 C10.6130887,11.0089748 10.6415176,11.0326655 10.6462557,11.080047 L10.7268042,11.0350346 L10.7670785,11.0326655 L10.7694476,11.0705707 C10.7718167,11.1084759 10.4898968,11.3287998 9.91894999,11.7315424 L9.9639624,11.8026146 L9.92368814,11.8049837 L9.8360324,11.7741857 C9.83840147,11.7978765 9.79812722,11.81446 9.71520962,11.8215672 L9.71994777,11.8642105 L9.81471073,11.9684498 C9.78391277,11.9708189 9.74126944,11.9613426 9.68678073,11.94239 C9.50199296,11.9589735 9.32194333,12.0916417 9.14426277,12.3427635 L9.18927518,12.4138357 C9.34326499,12.2716913 9.43328981,12.2006191 9.45934962,12.19825 L9.46882592,12.3143346 C9.44276611,12.3167037 9.40249185,12.3332872 9.34800314,12.3617161 L9.44513518,12.5085987 C9.50070198,12.4488116 9.55793944,12.3915306 9.61684756,12.3367555 L9.59177832,12.3395454 L9.57780333,12.0663406 L9.89922815,12.0134622 L9.90210779,12.1006296 Z M4,2.00246167 C4,1.44881738 4.44483697,1 4.9955775,1 L14.0044225,1 C14.5542648,1 15.3127724,1.31277239 15.7057732,1.70577316 L19.2942268,5.29422684 C19.6840146,5.68401459 20,6.45470893 20,6.9999602 L20,22.0000398 C20,22.5523026 19.5553691,23 18.9991283,23 L5.00087166,23 C4.4481055,23 4,22.5605417 4,21.9975383 L4,2.00246167 Z M9.90210779,12.1006296 C9.80302623,12.173346 9.70793948,12.2520546 9.61684756,12.3367555 L9.67096994,12.3307323 C9.77345322,12.2161626 9.85264485,12.1632842 9.90388648,12.1544711 L9.90210779,12.1006296 Z M8.82680685,20.0848976 C8.73204389,20.0422542 8.64675722,20.0256707 8.57331592,20.0327779 L8.56383963,19.9166933 C8.55910148,19.8716809 8.58516129,19.8408829 8.64201907,19.8290376 C8.6941387,19.8242994 8.72493666,19.8622046 8.72967481,19.938015 C8.86708111,19.7698107 8.94289148,19.684524 8.95710592,19.682155 L9.04476166,19.7176911 C9.01633277,19.9545985 8.94289148,20.0754213 8.82680685,20.0848976 Z M17.4399111,11.1605955 C17.3860915,11.1653337 17.2784524,11.0397728 17.1233255,10.79102 L17.1138279,10.7175787 C17.2151353,10.7104715 17.3196086,10.8336633 17.4304135,11.0871543 L17.4399111,11.1605955 Z M17.244127,10.2769309 L17.21096,10.3551104 L16.0524827,9.87181926 C16.8248009,9.89787907 17.2228053,10.0329163 17.244127,10.2769309 Z M12.5074989,14.6770627 L12.1950025,14.7299411 L12.1814157,14.4567363 L12.4939121,14.4038579 L12.5074989,14.6770627 Z M12.335042,11.9545836 L12.4190331,11.9518663 L12.4387957,12.0850169 C12.3597453,12.0877343 12.2559915,12.1529509 12.1275345,12.2779494 L12.1127126,12.1855592 C12.2658728,12.0850169 12.3449233,12.0089308 12.335042,11.9545836 L12.335042,11.9545836 Z M11.9486362,13.089967 C11.9504766,13.0759512 11.9519764,13.0614206 11.9531356,13.0463785 L11.9096528,13.0492283 L11.9205961,13.0905418 L11.9486362,13.089967 Z M11.6798599,13.4606756 L11.7751765,13.4514902 L11.7801931,13.5249737 L11.6246766,13.7637952 L11.4591267,13.7775733 L11.45411,13.7040898 C11.6196599,13.6903116 11.6949099,13.6122354 11.6798599,13.4606756 L11.6798599,13.4606756 Z M11.6735848,13.8186966 L11.577678,14.1408511 L11.4146364,14.1447798 L11.3475017,13.8265541 L11.6735848,13.8186966 Z M10.2523773,17.5973698 C10.1539708,17.8627061 10.0466184,17.9977433 9.93479286,18.0024814 L9.93031984,17.9645763 C9.90348172,17.8342772 10.0108342,17.7110853 10.2523773,17.5973698 Z M10.0964639,18.1256733 L10.1068157,18.2260066 C10.1275194,18.3639648 10.0240009,18.4454856 9.79626031,18.4517565 L9.78590846,18.3514232 C9.76520477,18.2322774 9.86872323,18.1570274 10.0964639,18.1256733 Z M9.80461746,19.5197166 C9.77420182,19.5137341 9.74342756,19.5098287 9.71229466,19.507951 C9.7123323,19.5173922 9.71262904,19.527009 9.71318928,19.5367924 L9.80461746,19.5197166 Z M11.2006191,18.8347079 C11.3996213,18.8175806 11.5701946,18.7343912 11.7123391,18.5900329 C11.7691968,18.5851394 11.7999948,18.6071602 11.8023639,18.6585419 C11.7052318,18.6683289 11.518075,18.7515184 11.2456315,18.9130039 L11.2053572,18.9154506 L11.2006191,18.8347079 L11.2006191,18.8347079 Z M12.5324326,15.3079193 L12.5341985,15.4003891 L12.8557528,15.3114573 L12.8537283,15.2054509 C12.7416619,15.24292 12.6345613,15.2770742 12.5324326,15.3079193 Z M14.8916365,14.6973585 L15.0241077,14.6763015 C15.1463889,14.7731638 15.210077,14.8573919 15.2151721,14.9331972 L15.2177196,15.0005797 C15.1005335,15.0174254 14.9909899,14.9163516 14.8916365,14.6973585 L14.8916365,14.6973585 Z M15.2256759,12.7857804 C15.1166985,12.9160794 14.8181952,13.1387724 14.3301659,13.4514902 C14.1690689,13.4657046 13.5696931,13.6978739 12.5320387,14.1527361 C12.4799191,14.1290454 12.4254304,14.1195691 12.3662035,14.1243072 L12.3590963,14.0508659 C12.3472509,13.9016142 12.413585,13.7144574 12.5604676,13.4870263 C12.6410161,13.0605929 12.7286718,12.8165783 12.8258039,12.7573515 L13.6905159,10.8123417 C13.6810396,10.6915189 13.8658274,10.599125 14.2448792,10.53516 L14.3680711,10.5233146 L14.3775474,10.6346611 C14.749492,10.5778033 14.9816613,10.5446363 15.0716861,10.5375291 C15.7587176,10.4783022 16.1164477,10.6180776 16.1448766,10.952117 L16.2230561,10.9450098 L16.2064726,10.7483767 L16.2917592,10.7412694 C16.4931305,10.8526159 16.6021079,10.9876531 16.6163224,11.1463811 C16.6257987,11.2553585 16.5665718,11.3903957 16.4410109,11.5514928 C16.3888913,11.5562309 16.3580933,11.5183257 16.3533552,11.4425154 L16.2680685,11.4496226 L16.2491159,11.68653 C15.900862,12.2077263 15.6473711,12.4754317 15.4910122,12.4896461 C15.3488678,12.6862792 15.261212,12.7834113 15.2256759,12.7857804 Z M15.8089547,14.2845552 C15.7171169,14.2030344 15.6436466,14.16635 15.5885439,14.1704261 L15.5762989,13.9707001 L15.6773205,13.958472 L15.9007925,14.1337417 C15.9099763,14.2274906 15.8793637,14.2764031 15.8089547,14.2845552 L15.8089547,14.2845552 Z M16.3059737,14.7994933 C16.4956948,14.8637218 16.6083417,14.932891 16.6320568,14.9971195 L16.5371963,15.0168821 L16.5431251,15.0218227 C16.5253387,15.0218227 16.5016236,15.0267634 16.4838372,15.031704 L16.3415464,15.1255765 L16.3059737,14.7994933 L16.3059737,14.7994933 Z M16.372725,15.39802 L16.3509861,15.2137121 L16.6553304,15.0719368 L16.6770692,15.2562447 L16.372725,15.39802 Z"/>
</svg>
