<svg width="24" height="24" viewBox="0 0 24 24">
  <path fill-rule="evenodd" d="M4,2.00246167 C4,1.44881738 4.44483697,1 4.9955775,1 L14.0044225,1 C14.5542648,1 15.3127724,1.31277239 15.7057732,1.70577316 L19.2942268,5.29422684 C19.6840146,5.68401459 20,6.45470893 20,6.9999602 L20,22.0000398 C20,22.5523026 19.5553691,23 18.9991283,23 L5.00087166,23 C4.4481055,23 4,22.5605417 4,21.9975383 L4,2.00246167 Z M5.915,18.28 C5.915,20.02 6.795,21.3 9.915,21.09 L10.075,19.76 C8.285,19.77 7.505,19.34 7.505,18.07 C7.505,17.08 7.835,16.74 10.005,16.75 L9.895,15.23 C6.895,15.33 5.915,16.69 5.915,18.28 Z M14.1713261,18.7043514 L14.1713261,17.6390436 L12.7488859,17.6390436 L12.7488859,16.1712861 L11.6204698,16.1712861 L11.6204698,17.6390436 L10.190083,17.6390436 L10.190083,18.7043514 L11.6204698,18.7043514 L11.6204698,20.18 L12.7488859,20.18 L12.7488859,18.7043514 L14.1713261,18.7043514 Z M19.13,18.7043514 L19.13,17.6390436 L17.7075599,17.6390436 L17.7075599,16.1712861 L16.5791437,16.1712861 L16.5791437,17.6390436 L15.148757,17.6390436 L15.148757,18.7043514 L16.5791437,18.7043514 L16.5791437,20.18 L17.7075599,20.18 L17.7075599,18.7043514 L19.13,18.7043514 Z"/>
</svg>
