<svg width="24" height="24" viewBox="0 0 24 24">
  <path fill-rule="evenodd" d="M4,2.00246167 C4,1.44881738 4.44483697,1 4.9955775,1 L14.0044225,1 C14.5542648,1 15.3127724,1.31277239 15.7057732,1.70577316 L19.2942268,5.29422684 C19.6840146,5.68401459 20,6.45470893 20,6.9999602 L20,22.0000398 C20,22.5523026 19.5553691,23 18.9991283,23 L5.00087166,23 C4.4481055,23 4,22.5605417 4,21.9975383 L4,2.00246167 Z M12.915,18.28 C12.915,20.02 13.795,21.3 16.915,21.09 L17.075,19.76 C15.285,19.77 14.505,19.34 14.505,18.07 C14.505,17.08 14.835,16.74 17.005,16.75 L16.895,15.23 C13.895,15.33 12.915,16.69 12.915,18.28 Z"/>
</svg>
