<svg width="24" height="24" viewBox="0 0 24 24">
  <path fill-rule="evenodd" d="M8.13461468,16.3582048 C7.89680761,16.5018342 7.68079108,16.6960813 7.48328545,16.9459009 C7.11143568,17.4161967 6.94737464,17.9630042 6.98015867,18.4989619 C7.01298966,19.0348727 7.27544975,19.4723375 7.69107418,19.8114033 C8.12853897,20.1504221 8.59883475,20.2488681 9.13479252,20.1504221 C9.34258125,20.117638 9.57225731,20.0082483 9.78004604,19.9426333 C9.34258125,19.9426333 8.97073149,19.8004596 8.59883475,19.5051685 C8.19420096,19.2098305 7.92075024,18.794253 7.85513521,18.2911262 C7.7566892,17.8208305 7.85513521,17.3833657 8.11764227,17.0005722 C8.17571455,16.9274438 8.23717104,16.8606588 8.30226109,16.8000513 C8.45202644,17.16876 8.62151621,17.524512 8.80667045,17.8646051 C9.21135121,18.4770746 9.61598501,19.0129854 10.0206658,19.5926709 C10.1956705,19.9316897 10.3159568,20.2707554 10.3925155,20.6098211 C10.6550226,20.9816709 11.037863,21.2222906 11.5081118,21.3535207 C12.0877973,21.5613094 12.6893231,21.6488118 13.3018396,21.6160277 L13.3674076,21.6160277 C13.9798771,21.6488118 14.6252246,21.5503657 15.2158067,21.3535207 C15.6532715,21.211347 16.0251213,20.9816709 16.298572,20.6098211 L16.331356,20.6098211 C16.3969711,20.2707084 16.5063607,19.9316897 16.6704218,19.5926709 C17.0751025,19.0129854 17.4797833,18.4770746 17.8844171,17.8646051 C18.4203279,16.8911826 18.7922246,15.7756333 19.0000134,14.5834783 C18.781281,14.889713 18.2781542,15.1522201 17.3703936,15.3600088 C16.3204124,15.6006285 14.975187,15.7646896 13.356464,15.7646896 C11.7050038,15.7646896 10.3597315,15.5896849 9.30975026,15.3600088 C8.36915869,15.1193891 7.86612585,14.856882 7.69107418,14.5834783 C7.78178449,15.1957364 7.93420114,15.7903534 8.13461468,16.3582048 Z M4,2.00246167 C4,1.44881738 4.44483697,1 4.9955775,1 L14.0044225,1 C14.5542648,1 15.3127724,1.31277239 15.7057732,1.70577316 L19.2942268,5.29422684 C19.6840146,5.68401459 20,6.45470893 20,6.9999602 L20,22.0000398 C20,22.5523026 19.5553691,23 18.9991283,23 L5.00087166,23 C4.4481055,23 4,22.5605417 4,21.9975383 L4,2.00246167 Z M11.7487315,12.3741731 C11.7050038,12.1991684 11.3549944,12.1226097 10.9175296,12.1554407 C10.0644404,12.2319994 10.0644404,12.6147928 10.0972245,12.7788538 C10.1847268,13.2162717 10.840971,13.5116567 11.6502855,13.435098 C12.7877691,13.336652 13.1158442,12.6038491 14.4501729,12.4835628 C15.106417,12.4288444 15.5220415,12.5601214 15.5657692,12.7897975 C15.6094969,13.0085299 15.2814217,13.1507036 14.8876847,13.1835346 C14.3408302,13.238206 14.1111541,13.0413609 14.0673795,12.8554125 C13.6626987,12.8991402 13.5970837,13.0741449 13.618971,13.1944783 C13.6626987,13.4241543 14.1548818,13.6538304 14.9970274,13.5772717 C15.9485626,13.500713 16.265741,13.1288163 16.1891823,12.7460228 C16.0907363,12.2538867 15.3579804,11.8492059 14.0455391,11.9694923 C12.361201,12.1226097 12.3721447,12.8991402 11.2237644,12.9975862 C10.7534686,13.0413609 10.4909616,12.9319712 10.4472339,12.7460228 C10.4144029,12.5601214 10.6440789,12.4726191 10.9175296,12.4507318 C11.1690461,12.4288444 11.4753278,12.4726191 11.6175015,12.5491778 C11.7268442,12.4945064 11.7596752,12.4397881 11.7487315,12.3741731 Z M13.3455673,14.4194173 C11.9346329,14.4194173 10.6769099,14.2772435 9.76910238,14.0803515 C8.79572678,13.8397318 8.28165634,13.5772717 8.28165634,13.238206 C8.28165634,13.0960323 8.34731833,12.9756989 8.54421036,12.8335252 C7.9316939,13.0741449 7.60357182,13.271037 7.60357182,13.5772717 C7.63640282,13.9162905 8.18325729,14.2553562 9.29880659,14.5178633 C10.3487878,14.7803234 11.6940602,14.9224971 13.3127363,14.9224971 C14.9642433,14.9224971 16.2766847,14.7803234 17.3266659,14.5178633 C18.4422152,14.2553562 18.978126,13.9053938 18.978126,13.5772717 C18.978126,13.336652 18.7375063,13.1069759 18.3000415,12.9319712 C18.3984875,12.9975862 18.4750462,13.1069759 18.4750462,13.2272623 C18.4750462,13.566328 17.9719194,13.8397318 16.9547692,14.0694078 C16.0141776,14.2772435 14.811126,14.4194173 13.3455673,14.4194173 L13.3455673,14.4194173 Z"/>
</svg>
