<svg width="24" height="24" viewBox="0 0 24 24">
  <path fill-rule="evenodd" d="M4,2.00246167 C4,1.44881738 4.44483697,1 4.9955775,1 L14.0044225,1 C14.5542648,1 15.3127724,1.31277239 15.7057732,1.70577316 L19.2942268,5.29422684 C19.6840146,5.68401459 20,6.45470893 20,6.9999602 L20,22.0000398 C20,22.5523026 19.5553691,23 18.9991283,23 L5.00087166,23 C4.4481055,23 4,22.5605417 4,21.9975383 L4,2.00246167 Z M10.7480469,20.7109375 C11.126955,20.8437507 11.6113252,20.9101562 12.2011719,20.9101562 L12.8691406,20.9101562 L12.8691406,19.8496094 L12.03125,19.8496094 C11.640623,19.8496094 11.3593759,19.7578134 11.1875,19.5742188 C11.0156241,19.3906241 10.9296875,19.0957052 10.9296875,18.6894531 L10.953125,17.8457031 C10.953125,17.466795 10.8769539,17.1269546 10.7246094,16.8261719 C10.5722649,16.5253891 10.371095,16.2949227 10.1210938,16.1347656 C10.3906263,15.9628898 10.6005852,15.7373061 10.7509766,15.4580078 C10.9013679,15.1787095 10.9765625,14.863283 10.9765625,14.5117188 L10.953125,13.3984375 C10.953125,13.0781234 11.0146478,12.8378914 11.1376953,12.6777344 C11.2607428,12.5175773 11.4511706,12.4375 11.7089844,12.4375 L12.8867188,12.4375 L12.8867188,11.3535156 L11.9140625,11.3535156 C11.1601525,11.3535156 10.5888691,11.536131 10.2001953,11.9013672 C9.81152149,12.2666034 9.6171875,12.8046839 9.6171875,13.515625 L9.64648438,14.6464844 C9.64648438,14.9785173 9.58691466,15.2207024 9.46777344,15.3730469 C9.34863222,15.5253914 9.16406375,15.6015625 8.9140625,15.6015625 L8.421875,15.6015625 L8.421875,16.6738281 L8.92578125,16.6738281 C9.16015742,16.6738281 9.33398381,16.7470696 9.44726562,16.8935547 C9.56054744,17.0400398 9.6171875,17.3027325 9.6171875,17.6816406 L9.58203125,18.6894531 C9.58203125,19.2558622 9.68163963,19.7011703 9.88085938,20.0253906 C10.0800791,20.349611 10.3691387,20.5781243 10.7480469,20.7109375 Z M14.6738281,20.9101562 L15.3417969,20.9101562 C15.9316436,20.9101562 16.4160137,20.8437507 16.7949219,20.7109375 C17.17383,20.5781243 17.4628896,20.349611 17.6621094,20.0253906 C17.8613291,19.7011703 17.9609375,19.2558622 17.9609375,18.6894531 L17.9257812,17.6816406 C17.9257812,17.3027325 17.9824213,17.0400398 18.0957031,16.8935547 C18.2089849,16.7470696 18.3828113,16.6738281 18.6171875,16.6738281 L19.1210938,16.6738281 L19.1210938,15.6015625 L18.6289062,15.6015625 C18.378905,15.6015625 18.1943365,15.5253914 18.0751953,15.3730469 C17.9560541,15.2207024 17.8964844,14.9785173 17.8964844,14.6464844 L17.9257812,13.515625 C17.9257812,12.8046839 17.7314473,12.2666034 17.3427734,11.9013672 C16.9540996,11.536131 16.3828163,11.3535156 15.6289062,11.3535156 L14.65625,11.3535156 L14.65625,12.4375 L15.8339844,12.4375 C16.0917982,12.4375 16.2822259,12.5175773 16.4052734,12.6777344 C16.5283209,12.8378914 16.5898438,13.0781234 16.5898438,13.3984375 L16.5664062,14.5117188 C16.5664062,14.863283 16.6416008,15.1787095 16.7919922,15.4580078 C16.9423836,15.7373061 17.1523424,15.9628898 17.421875,16.1347656 C17.1718737,16.2949227 16.9707039,16.5253891 16.8183594,16.8261719 C16.6660149,17.1269546 16.5898438,17.466795 16.5898438,17.8457031 L16.6132812,18.6894531 C16.6132812,19.0957052 16.5273446,19.3906241 16.3554688,19.5742188 C16.1835929,19.7578134 15.9023457,19.8496094 15.5117188,19.8496094 L14.6738281,19.8496094 L14.6738281,20.9101562 Z"/>
</svg>
