<svg width="24" height="24" viewBox="0 0 24 24">
  <path fill-rule="evenodd" d="M18,14 C18,12.8954305 16.209139,12 14,12 C11.790861,12 10,12.8954305 10,14 L10,15 C10,16.1045695 11.790861,17 14,17 C16.209139,17 18,16.1045695 18,15 L18,14 Z M18,16 C18,17.1045695 16.209139,18 14,18 C11.790861,18 10,17.1045695 10,16 L10,17 C10,18.1045695 11.790861,19 14,19 C16.209139,19 18,18.1045695 18,17 L18,16 Z M18,18 C18,19.1045695 16.209139,20 14,20 C11.790861,20 10,19.1045695 10,18 L10,19 C10,20.1045695 11.790861,21 14,21 C16.209139,21 18,20.1045695 18,19 L18,18 Z M4,2.00246167 C4,1.44881738 4.44483697,1 4.9955775,1 L14.0044225,1 C14.5542648,1 15.3127724,1.31277239 15.7057732,1.70577316 L19.2942268,5.29422684 C19.6840146,5.68401459 20,6.45470893 20,6.9999602 L20,22.0000398 C20,22.5523026 19.5553691,23 18.9991283,23 L5.00087166,23 C4.4481055,23 4,22.5605417 4,21.9975383 L4,2.00246167 Z"/>
</svg>
