<svg width="24" height="24" viewBox="0 0 24 24">
  <path fill-rule="evenodd" d="M4,2.00246167 C4,1.44881738 4.44483697,1 4.9955775,1 L14.0044225,1 C14.5542648,1 15.3127724,1.31277239 15.7057732,1.70577316 L19.2942268,5.29422684 C19.6840146,5.68401459 20,6.45470893 20,6.9999602 L20,22.0000398 C20,22.5523026 19.5553691,23 18.9991283,23 L5.00087166,23 C4.4481055,23 4,22.5605417 4,21.9975383 L4,2.00246167 Z M17.9313744,17.5718694 C17.9124011,17.564445 16.2934876,16.9441021 16.2774015,15.0805986 C16.2633778,13.5219045 17.5494345,12.7745233 17.6092415,12.7365767 C16.8841332,11.6769617 15.756462,11.5330125 15.3563738,11.5148642 C14.3965746,11.4175231 13.4854459,12.0803496 12.9987407,12.0803496 C12.5124479,12.0803496 11.7625919,11.5321876 10.9657153,11.5453863 C9.9197115,11.5614724 8.95743754,12.1529429 8.41711226,13.0892318 C7.33357445,14.9725335 8.14035022,17.7653141 9.1991403,19.2943109 C9.7176051,20.0416921 10.332586,20.8847645 11.1434864,20.853005 C11.9238646,20.8220703 12.2183625,20.3485639 13.1608383,20.3485639 C14.1037265,20.3485639 14.3689396,20.853005 15.1922139,20.8369189 C16.0319866,20.8220703 16.5657125,20.0734517 17.0775779,19.3223583 C17.6719357,18.4557755 17.9161133,17.6139405 17.9313744,17.5718694 Z M14.7269567,10.5055695 C15.158392,9.98462995 15.4479404,9.26075906 15.3687476,8.53771308 C14.7496421,8.56204834 13.9968989,8.95182498 13.5539146,9.47070224 C13.1563012,9.9330722 12.8077708,10.669317 12.9001623,11.3762769 C13.5914487,11.429897 14.2975837,11.0256842 14.7269567,10.5055695 Z"/>
</svg>
