<svg width="24" height="24" viewBox="0 0 24 24">
  <path fill-rule="evenodd" d="M4,2.00246167 C4,1.44881738 4.44483697,1 4.9955775,1 L14.0044225,1 C14.5542648,1 15.3127724,1.31277239 15.7057732,1.70577316 L19.2942268,5.29422684 C19.6840146,5.68401459 20,6.45470893 20,6.9999602 L20,22.0000398 C20,22.5523026 19.5553691,23 18.9991283,23 L5.00087166,23 C4.4481055,23 4,22.5605417 4,21.9975383 L4,2.00246167 Z M18.1775134,16.4627399 L15.9763906,12.5899233 C15.8964355,12.4498938 15.7487354,12.3466028 15.5888633,12.3466028 L11.1865415,12.3466028 C11.0266314,12.3466028 10.8788933,12.4498938 10.7989382,12.5899233 L8.59781535,16.4541997 C8.51786027,16.5942677 8.51786027,16.7710357 8.59781535,16.9111037 L10.7989382,20.7521829 C10.8788933,20.8922124 11.0266314,20.9638044 11.1865415,20.9638044 L15.5888253,20.9638044 C15.7486974,20.9638044 15.8964355,20.8943667 15.9763525,20.7542987 L18.1774754,16.906949 C18.2575065,16.7669579 18.2575065,16.6027695 18.1775134,16.4627399 Z M16.3548649,18.3250557 C16.3548649,18.3819908 16.3209733,18.4346558 16.2721711,18.4631618 L13.4684182,20.0991606 C13.419654,20.1276281 13.3585656,20.1276281 13.3098014,20.0991606 L10.5038804,18.4631618 C10.4551162,18.4346558 10.4209964,18.3820293 10.4209964,18.3250557 L10.4209964,15.0530196 C10.4209964,14.9960461 10.4546217,14.9434196 10.5034239,14.9149136 L13.3070627,13.2789147 C13.3558269,13.2504087 13.4168392,13.2504087 13.4656035,13.2789147 L16.2717146,14.9149136 C16.3205169,14.9434196 16.3548649,14.9960461 16.3548649,15.0530196 L16.3548649,18.3250557 L16.3548649,18.3250557 Z M11.4709108,15.482841 C11.4248472,15.5097698 11.3964331,15.559511 11.3963951,15.6133685 L11.3963951,17.7647453 C11.3963951,17.8186028 11.4248092,17.8683825 11.4709108,17.8953113 L13.3131487,18.9709996 C13.3592503,18.9979284 13.4160785,18.9979284 13.4621801,18.9709996 L15.304456,17.8953113 C15.3505196,17.868344 15.3789717,17.8185643 15.3789717,17.7647453 L15.3789717,15.6133685 C15.3789717,15.559511 15.3505196,15.5097698 15.304456,15.482841 L13.4621801,14.4071526 C13.4160785,14.3802239 13.3592503,14.3802239 13.3131487,14.4071526 L11.4709108,15.482841 Z"/>
</svg>
