<svg width="24" height="24" viewBox="0 0 24 24">
  <path fill-rule="evenodd" d="M9.77800664,10.9088017 C9.06362118,10.9088017 8.42994199,10.9088017 8.42994199,10.9088017 L11.7561974,14.2682927 C11.6458812,14.2682927 11.5839383,14.2682927 11.5549872,14.2682927 C10.8318882,14.2682927 9.10273844,14.2682927 9.10273844,14.2682927 L11.7310461,16.9278897 C11.5619006,16.9278897 11.4238413,16.9278897 11.3726405,16.9278897 C10.5049217,16.9278897 8.41736635,16.9278897 8.41736635,16.9278897 L12.4289938,20.9872747 L12.4289938,17.281018 L12.4289938,14.271474 L12.4289938,12.3658537 L14.4348076,12.3658537 L15.3088142,13.2502651 L13.353303,13.2502651 L14.5259809,14.4369035 L13.353303,13.2502651 L13.353303,16.5715801 C13.353303,16.5715801 14.0889776,16.5715801 14.214734,16.5715801 C14.2387257,16.5715801 14.2638572,16.5715801 14.2900244,16.5715801 L15.3465411,17.6341463 L13.3030004,17.6341463 L13.3155761,17.6468717 L13.3155761,21 C13.3155761,21 14.0638263,21 14.1895827,21 C14.9126817,21 16.6418315,21 16.6418315,21 L13.3155761,17.6341463 L13.3155761,17.6468717 L14.6737446,19.0212089 L14.6737446,21 L18,21 L16.3211528,19.3011665 L16.3211528,18.6203606 L16.6795584,18.9830329 L16.6795584,15.6235419 L16.0067619,15.6235419 L16.0067619,13.9565217 L17.3020523,15.2672322 L17.3020523,11.9013786 L14.5165492,11.9013786 L11.6493045,9 L11.6493045,10.2216331 L9.10273844,10.2216331 L9.78182272,10.9088017 Z M4,2.00246167 C4,1.44881738 4.44483697,1 4.9955775,1 L14.0044225,1 C14.5542648,1 15.3127724,1.31277239 15.7057732,1.70577316 L19.2942268,5.29422684 C19.6840146,5.68401459 20,6.45470893 20,6.9999602 L20,22.0000398 C20,22.5523026 19.5553691,23 18.9991283,23 L5.00087166,23 C4.4481055,23 4,22.5605417 4,21.9975383 L4,2.00246167 Z"/>
</svg>
