<svg width="24" height="24" viewBox="0 0 24 24">
  <path fill-rule="evenodd" d="M17.25,14.0815922 L17.25,14.5 C17.25,16.8355412 15.6576144,18.7606492 13.5540814,18.7606492 C12.3859836,18.7606492 12.25,19.1557846 12.25,22.5 L12.25,17.432377 C12.600021,17.3112201 13.0290575,17.2606492 13.5540814,17.2606492 C14.7596179,17.2606492 15.75,16.0633309 15.75,14.5 L15.75,14.0815922 C15.1587632,13.8007262 14.75,13.198099 14.75,12.5 C14.75,11.5335017 15.5335017,10.75 16.5,10.75 C17.4664983,10.75 18.25,11.5335017 18.25,12.5 C18.25,13.198099 17.8412368,13.8007262 17.25,14.0815922 Z M10.75,12.0815922 L10.75,23 L5.00087166,23 C4.4481055,23 4,22.5605417 4,21.9975383 L4,2.00246167 C4,1.44881738 4.44483697,1 4.9955775,1 L14.0044225,1 C14.5542648,1 15.3127724,1.31277239 15.7057732,1.70577316 L19.2942268,5.29422684 C19.6840146,5.68401459 20,6.45470893 20,6.9999602 L20,22.0000398 C20,22.5523026 19.5553691,23 18.9991283,23 L12.25,23 L12.25,22.75 L12.25,12.0815922 C12.8412368,11.8007262 13.25,11.198099 13.25,10.5 C13.25,9.53350169 12.4664983,8.75 11.5,8.75 C10.5335017,8.75 9.75,9.53350169 9.75,10.5 C9.75,11.198099 10.1587632,11.8007262 10.75,12.0815922 Z M11.5,11.75 C10.8096441,11.75 10.25,11.1903559 10.25,10.5 C10.25,9.80964406 10.8096441,9.25 11.5,9.25 C12.1903559,9.25 12.75,9.80964406 12.75,10.5 C12.75,11.1903559 12.1903559,11.75 11.5,11.75 Z M16.5,13.75 C15.8096441,13.75 15.25,13.1903559 15.25,12.5 C15.25,11.8096441 15.8096441,11.25 16.5,11.25 C17.1903559,11.25 17.75,11.8096441 17.75,12.5 C17.75,13.1903559 17.1903559,13.75 16.5,13.75 Z"/>
</svg>
