<svg width="24" height="24" viewBox="0 0 24 24">
  <path fill-rule="evenodd" d="M14.9112762,14.6637971 C15.7550864,14.7573091 16.6224919,14.3992365 17.1437722,13.654771 L17.8995435,12.5754177 C18.6598095,11.4896453 18.3959345,9.9931354 17.310162,9.23286936 L17.1463316,9.11815407 C16.0605592,8.35788802 14.5640493,8.62176309 13.8037833,9.70753553 L13.8037833,9.70753553 L13.048012,10.7868888 C12.5267316,11.5313543 12.4869236,12.4689169 12.8633961,13.229856 L13.5477496,12.2524979 C13.568881,12.0080892 13.6526784,11.7657964 13.8035093,11.5503877 L14.4267865,10.6602556 L14.4267865,10.6602556 C14.8839623,10.0073408 15.7838685,9.84866308 16.4367832,10.3058389 L16.4367832,10.3058389 L16.4367832,10.3058389 C17.089698,10.7630147 17.2483757,11.6629209 16.7911999,12.3158357 L16.1679227,13.2059678 C16.0170919,13.4213765 15.8180715,13.5829893 15.5956298,13.686439 L14.9112762,14.6637971 Z M14.1366039,15.770144 L13.4522504,16.7475021 C13.431119,16.9919108 13.3473216,17.2342036 13.1964907,17.4496123 L12.5732135,18.3397444 C12.1160377,18.9926592 11.2161315,19.1513369 10.5632168,18.6941611 L10.5632168,18.6941611 L10.5632168,18.6941611 C9.91030205,18.2369853 9.7516243,17.3370791 10.2088001,16.6841643 L10.8320773,15.7940322 C10.9829081,15.5786235 11.1819285,15.4170107 11.4043702,15.313561 L12.0887238,14.3362029 C11.2449136,14.2426909 10.3775081,14.6007635 9.8562278,15.345229 L9.1004565,16.4245823 C8.34019046,17.5103547 8.60406552,19.0068646 9.68983796,19.7671306 L9.85366837,19.8818459 C10.9394408,20.642112 12.4359507,20.3782369 13.1962167,19.2924645 L13.951988,18.2131112 C14.4732684,17.4686457 14.5130764,16.5310831 14.1366039,15.770144 Z M4,2.00246167 C4,1.44881738 4.44483697,1 4.9955775,1 L14.0044225,1 C14.5542648,1 15.3127724,1.31277239 15.7057732,1.70577316 L19.2942268,5.29422684 C19.6840146,5.68401459 20,6.45470893 20,6.9999602 L20,22.0000398 C20,22.5523026 19.5553691,23 18.9991283,23 L5.00087166,23 C4.4481055,23 4,22.5605417 4,21.9975383 L4,2.00246167 Z M15.0215079,12.298004 L15.0215079,12.298004 C14.8405459,12.171293 14.5911275,12.2152722 14.4644165,12.3962343 L11.8529568,16.1257854 C11.7262458,16.3067474 11.7702249,16.5561657 11.951187,16.6828767 L11.9784921,16.701996 C12.1594541,16.828707 12.4088725,16.7847278 12.5355835,16.6037657 L15.1470432,12.8742146 C15.2737542,12.6932526 15.2297751,12.4438343 15.048813,12.3171233 L15.0215079,12.298004 Z"/>
</svg>
