<svg width="24" height="24" viewBox="0 0 24 24">
  <path fill-rule="evenodd" d="M4,2.00246167 C4,1.44881738 4.44483697,1 4.9955775,1 L14.0044225,1 C14.5542648,1 15.3127724,1.31277239 15.7057732,1.70577316 L19.2942268,5.29422684 C19.6840146,5.68401459 20,6.45470893 20,6.9999602 L20,22.0000398 C20,22.5523026 19.5553691,23 18.9991283,23 L5.00087166,23 C4.4481055,23 4,22.5605417 4,21.9975383 L4,2.00246167 Z M6.16793753,20.6217925 L8.32338565,20.6217925 L11.1973495,16.3108963 L8.32338565,12 L6.16793753,12 L9.04190138,16.3108963 L6.16793753,20.6217925 Z M9.04190138,20.6217925 L11.1973495,20.6217925 L12.9935893,17.9275319 L14.78973,20.6217925 L16.9451782,20.6217925 L11.1973495,12 L9.04190138,12 L11.9158652,16.3108963 L9.04190138,20.6217925 Z M15.9872562,18.107136 L18.3822096,18.107136 L18.3822096,16.6701046 L15.0293343,16.6702036 L15.9872562,18.107136 Z M14.5503238,15.9516879 L18.3822096,15.9516879 L18.3822096,14.5146565 L13.5923029,14.5147555 L14.5503238,15.9516879 Z"/>
</svg>
