<svg width="24" height="24" viewBox="0 0 24 24">
  <path fill-rule="evenodd" d="M16.4674328,12.0756468 L16.438886,12.0787639 C16.4386046,12.0788918 16.4383273,12.0790197 16.4380533,12.0791474 L15.1283567,12.2228106 C15.1260599,12.2274043 15.123763,12.2319981 15.121138,12.2369199 C15.1063724,12.2671074 15.0916068,12.297623 15.0765131,12.3284667 C15.0318881,12.4206697 14.9866069,12.5145133 14.9406695,12.6106537 C14.9290498,12.6350474 14.9174121,12.6595674 14.9057521,12.6842178 C14.9174401,12.6594473 14.9290821,12.6348137 14.9406695,12.6103256 C14.9862788,12.5141851 15.03156,12.4203415 15.0765131,12.3281386 C15.0912787,12.2972949 15.1063724,12.2671074 15.121138,12.2365918 C15.1234349,12.23167 15.1260599,12.2267481 15.1283567,12.2218262 L15.0797943,12.2270762 L15.0410756,12.1509513 C15.0374662,12.1584982 15.0335288,12.1657169 15.0295913,12.1732638 C14.9600289,12.3114042 14.8911227,12.4508571 14.8228728,12.5916225 C14.7834979,12.6729974 14.7441229,12.7547004 14.7050761,12.8367315 C14.5967951,13.0641218 14.4901546,13.2934808 14.3854829,13.5244805 C14.2794987,13.757777 14.1758113,13.992386 14.0740927,14.2273231 C13.9740148,14.4579946 13.8762337,14.6889943 13.7800932,14.9193377 C13.6842808,15.1493529 13.5907654,15.378712 13.4992186,15.6064304 C13.4841769,15.6439056 13.4692002,15.6813238 13.45429,15.7186837 C13.469208,15.6812147 13.4841847,15.6436871 13.4992186,15.6061022 C13.5904372,15.3783838 13.6842808,15.1493529 13.7800932,14.9190096 C13.8759055,14.6886662 13.9740148,14.4579946 14.0740927,14.226995 C14.1758113,13.9920579 14.2798268,13.7574488 14.3854829,13.5241523 C14.4901546,13.2934808 14.5967951,13.0637937 14.7050761,12.8364034 C14.7441229,12.7543723 14.7834979,12.6726693 14.8228728,12.5912944 C14.8911227,12.450529 14.9600289,12.3110761 15.0295913,12.1729357 C15.0331749,12.1654427 15.0370819,12.1582731 15.0409913,12.1507848 L15.0410756,12.1509513 C15.1513254,11.9327485 15.2628878,11.7174989 15.3757626,11.5061867 C15.4961843,11.2810933 15.6182466,11.0609218 15.7416214,10.8466565 C15.86959,10.6241881 15.9991991,10.4082821 16.1301208,10.2002512 C16.1376677,10.1881106 16.1455427,10.1756419 16.1530895,10.1631731 C16.2823706,9.95842347 16.4129641,9.76154877 16.544542,9.57320531 L16.5444006,9.57293831 C16.8225898,9.1750302 17.1050424,8.81713809 17.3901189,8.51139445 C17.4121032,8.48711324 17.4235876,8.47562888 17.4235876,8.47562888 C17.4124313,8.48744136 17.4012751,8.49958197 17.3901189,8.51139445 C17.2979159,8.61311304 17.0180257,8.93959691 16.5957295,9.58797091 C17.0022757,9.56762719 17.6270247,9.4846117 18.1366021,9.39733058 C18.2881956,8.54814439 17.9879617,8.15931687 17.9879617,8.15931687 C17.9879617,8.15931687 17.6063529,7.54178657 17.1581348,7.80658304 C16.9405883,7.93487971 16.5793232,8.29844165 16.1478395,8.82508147 L16.1479683,8.82532459 C16.1181754,8.86166828 16.0883811,8.89866531 16.0579334,8.93631567 C15.9437461,9.0787217 15.824965,9.23195584 15.7032308,9.39437746 C15.5660748,9.57747093 15.4249813,9.77303313 15.2815909,9.97811093 C15.1493567,10.1677669 15.0151538,10.3662822 14.8809509,10.5716881 C14.7667635,10.7465785 14.65192,10.9267188 14.5380608,11.1114529 L14.5253553,11.1319772 L14.5252639,11.1317967 C14.5167327,11.1455779 14.5085296,11.1593591 14.4999983,11.1731403 C14.3799048,11.3693588 14.2601393,11.570171 14.1426708,11.7752488 C14.0238897,11.9822953 13.9074055,12.1932794 13.7935463,12.4072166 C13.6974058,12.587685 13.6035622,12.7697941 13.5123436,12.9535438 C13.4939686,12.99095 13.4759218,13.0277 13.4578749,13.064778 C13.3453282,13.2961058 13.2439378,13.5195586 13.1520629,13.7344801 C13.0480474,13.9779485 12.9565007,14.2105888 12.8764383,14.4310884 C12.8236103,14.5761195 12.7757041,14.7162286 12.7317354,14.8507597 C12.6956417,14.9656032 12.6611887,15.0807749 12.6287043,15.1952904 C12.5515951,15.4653368 12.4853139,15.734727 12.4308453,16.0031329 L12.4314569,16.0043402 C12.4291665,16.0157545 12.4262367,16.0274926 12.4239547,16.0395547 C12.358986,16.3670229 12.3127205,16.6931787 12.2894236,17.0173657 C12.2887674,17.02885 12.2874549,17.0400063 12.2867986,17.0514906 C12.1250332,16.7922723 11.6919089,16.5392883 11.6928933,16.5415852 C12.0029709,16.9911157 12.2382362,17.437365 12.2733455,17.8754112 C12.1073145,17.9095362 11.8799242,17.8603175 11.6170965,17.7635208 C11.8910805,18.0151923 12.0968145,18.0847547 12.1768769,18.1034578 C11.9252054,18.1192077 11.663034,18.2921293 11.3988937,18.4913009 C11.7850963,18.3338012 12.0971427,18.2714575 12.3205954,18.3219887 C11.966221,19.3253934 11.6108622,20.4331417 11.2555033,21.6091399 C11.3644407,21.5769836 11.4294093,21.5038119 11.4658311,21.4047183 C11.5291592,21.1917655 11.9494866,19.7946114 12.6080325,17.9580986 C12.6267356,17.9059268 12.6457668,17.8534269 12.664798,17.8005989 C12.670048,17.7858333 12.6756261,17.7710677 12.6808761,17.7566302 C12.7504385,17.5640211 12.8226259,17.3674745 12.8971102,17.1669905 C12.9141726,17.1213812 12.9312351,17.0757719 12.9482976,17.0298344 C12.9486257,17.02885 12.9489538,17.0278657 12.949282,17.0272094 L12.5980183,16.3331409 L12.949282,17.0265532 C13.01786,16.8434597 13.0880786,16.6580694 13.160266,16.470054 C13.1802816,16.4178822 13.2006253,16.3650542 13.2209691,16.3125543 C13.2347603,16.2769478 13.2486128,16.24128 13.2625256,16.2055521 C13.2486048,16.2413898 13.2347522,16.2771669 13.2209691,16.3128824 C13.2006253,16.3653823 13.1802816,16.4178822 13.160266,16.4703822 C13.0880786,16.6583975 13.01786,16.8437878 12.949282,17.0268813 L13.0103131,17.147303 L13.0647818,17.1413967 C13.0667505,17.1358186 13.0687193,17.1302405 13.070688,17.1249905 C13.1589535,16.883819 13.2462346,16.6488819 13.3328595,16.4201791 C13.333456,16.4186191 13.3340524,16.4170591 13.334648,16.4154991 C13.3340452,16.4171685 13.3334487,16.4188379 13.3328595,16.4205072 C13.2462346,16.64921 13.1589535,16.8841471 13.0710162,17.1249905 C13.0690901,17.1304476 13.0671641,17.1359047 13.065238,17.1410546 L13.0651099,17.1410686 C13.0519849,17.1761779 13.0391881,17.2112873 13.0263912,17.2467247 C12.9581413,17.4344119 12.8895633,17.6253804 12.8206572,17.8206145 C12.8196728,17.8235676 12.8186884,17.8261926 12.817704,17.8291457 C12.8078603,17.8567081 12.7983447,17.8842706 12.788501,17.9118331 C12.7422354,18.043411 12.7018761,18.1618639 12.6096731,18.4312541 C12.7615948,18.5004884 12.8836571,18.6829256 12.9991569,18.8899722 C12.9870163,18.6757069 12.8980945,18.4742384 12.7297667,18.3183793 C13.4788749,18.3521761 14.1242958,18.1628483 14.4579984,17.6152085 C14.4878577,17.566318 14.5150921,17.5151305 14.5397014,17.4603338 C14.3881079,17.6526147 14.2000925,17.7343177 13.8460462,17.7143021 C13.84539,17.7146302 13.8444056,17.7149584 13.8437493,17.7152865 C13.8444056,17.7149584 13.84539,17.7146302 13.8460462,17.7143021 C14.3671079,17.4810056 14.6286231,17.2572247 14.8596228,16.8861159 C14.9144196,16.7981785 14.9675757,16.7020381 15.0220444,16.5953976 C14.5662795,17.0633031 14.0383272,17.1965217 13.4821561,17.0954593 L13.4810826,17.0955767 C13.4732106,17.0940598 13.4650646,17.093091 13.4572187,17.0915218 C13.9559679,17.0295063 14.6187794,16.6567569 15.04731,16.1967263 C15.2448409,15.9847579 15.4239969,15.734727 15.5896998,15.44204 C15.7130746,15.2241653 15.8289025,14.9826657 15.9391524,14.7152442 C16.035621,14.4816196 16.1281521,14.2286356 16.2174019,13.9543235 C16.1028865,14.0146985 15.9716367,14.0589953 15.8269338,14.089839 C15.8016682,14.095089 15.7757464,14.1003389 15.7494964,14.1049327 C15.7232464,14.1095264 15.6966684,14.113792 15.6697621,14.1174014 C15.6700903,14.1174014 15.6704184,14.1170733 15.6707465,14.1170733 C15.6713609,14.116837 15.6719751,14.1166004 15.6725891,14.1163634 C15.6985304,14.1128365 15.7241662,14.1087092 15.7494964,14.1042764 C15.7241662,14.1087092 15.6985304,14.1128365 15.6725891,14.1163634 L15.6725889,14.1163635 C16.1364741,13.9373321 16.4293241,13.5921714 16.6423231,13.1697779 C16.5199327,13.2531215 16.3210893,13.362387 16.0828709,13.4148869 C16.0824587,13.4149785 16.0820465,13.4150698 16.0816341,13.4151608 C16.0818022,13.4149892 16.0819702,13.4148174 16.0821381,13.4146454 C16.082273,13.4146165 16.0824079,13.4145877 16.0825428,13.4145588 C16.082416,13.4145794 16.0822891,13.4146 16.0821623,13.4146206 C16.0822891,13.4144907 16.082416,13.4143607 16.0825428,13.4142306 C16.0824088,13.4143619 16.0822748,13.414493 16.0821407,13.4146241 C16.0425041,13.4210727 16.0022347,13.4281509 15.9613325,13.4349267 C16.1221099,13.3674946 16.2578012,13.2922184 16.3755579,13.2032466 C16.4008235,13.1842154 16.4254329,13.1645279 16.4490578,13.143856 C16.4851515,13.1126842 16.5192765,13.0798718 16.5520889,13.0454187 C16.5730889,13.0234344 16.5934326,13.0007938 16.6131201,12.9771688 C16.6593856,12.9220439 16.702698,12.8626534 16.7433855,12.7980128 C16.7558542,12.7783254 16.7679948,12.7583098 16.7801354,12.7376379 C16.7955573,12.7077786 16.8103229,12.6785755 16.8247604,12.6497006 C16.889729,12.519107 16.9415727,12.4026228 16.9829164,12.300248 C17.0035882,12.2490606 17.0216351,12.2018106 17.0370569,12.1578419 C17.0432913,12.1404513 17.0491975,12.1233889 17.0547756,12.1069826 C17.0711819,12.057764 17.084635,12.0141234 17.0951349,11.9757329 C17.1108849,11.9183111 17.1204005,11.8727018 17.1256505,11.8395612 C17.1099005,11.8520299 17.0918537,11.8644986 17.07151,11.8766393 C16.9310727,11.9606391 16.6902293,12.036764 16.4959796,12.0725296 L16.8789009,12.0305296 L16.4959796,12.0725296 C16.4930265,12.0731858 16.4900734,12.0735139 16.4871203,12.0741702 C16.4677609,12.0774514 16.4480734,12.0804046 16.428386,12.0836858 C16.4286894,12.0835479 16.4289882,12.08341 16.4292832,12.0832722 C16.4487747,12.0803414 16.4679475,12.0770949 16.4871203,12.0741702 C16.4900734,12.0735139 16.4930265,12.0731858 16.4959796,12.0725296 L16.4674328,12.0756468 C16.8204947,11.9032173 16.9911195,11.7444051 17.1568223,11.5147179 C17.200791,11.4513899 17.2450878,11.3851088 17.2890565,11.3165307 C17.4235876,11.1065311 17.5554936,10.8752033 17.6736184,10.645188 C17.7874776,10.4230477 17.8878837,10.2028762 17.964993,10.0043609 C18.0138835,9.87803296 18.0532585,9.7605644 18.0804928,9.6575333 C18.1044459,9.56664282 18.123149,9.48034608 18.1375865,9.39798683 C17.6273529,9.48493982 17.0026038,9.56828344 16.5960576,9.58829904 C16.4795734,9.76712689 16.3522611,9.97023595 16.2154332,10.2002512 C16.2082144,10.2120637 16.2009957,10.2245324 16.193777,10.236673 C16.0756521,10.4358446 15.9499805,10.6543755 15.8180744,10.8939064 C15.7038871,11.1006248 15.585106,11.322437 15.4617312,11.5609835 C15.3541064,11.7686863 15.2428722,11.989186 15.1286849,12.2224825 L16.438886,12.0787639 Z M16.0815791,13.415173 C16.0495082,13.4222533 16.0168025,13.427749 15.9837773,13.4326056 C15.975246,13.4339181 15.9670429,13.4352306 15.9588398,13.436215 C15.9591679,13.436215 15.9591679,13.4358868 15.9594961,13.4358868 C15.9594961,13.4358868 15.959692,13.4358868 15.9597811,13.4357354 C15.9678582,13.434741 15.9756537,13.4332129 15.9834492,13.4322775 C16.0170957,13.4273775 16.0500918,13.4215019 16.0821137,13.4146506 C16.0819355,13.4148249 16.0817573,13.414999 16.0815791,13.415173 Z M4,2.00246167 C4,1.44881738 4.44483697,1 4.9955775,1 L14.0044225,1 C14.5542648,1 15.3127724,1.31277239 15.7057732,1.70577316 L19.2942268,5.29422684 C19.6840146,5.68401459 20,6.45470893 20,6.9999602 L20,22.0000398 C20,22.5523026 19.5553691,23 18.9991283,23 L5.00087166,23 C4.4481055,23 4,22.5605417 4,21.9975383 L4,2.00246167 Z"/>
</svg>
