<svg width="24" height="24" viewBox="0 0 24 24">
  <path fill-rule="evenodd" d="M4,2.00246167 C4,1.44881738 4.44483697,1 4.9955775,1 L14.0044225,1 C14.5542648,1 15.3127724,1.31277239 15.7057732,1.70577316 L19.2942268,5.29422684 C19.6840146,5.68401459 20,6.45470893 20,6.9999602 L20,22.0000398 C20,22.5523026 19.5553691,23 18.9991283,23 L5.00087166,23 C4.4481055,23 4,22.5605417 4,21.9975383 L4,2.00246167 Z M9.38163099,14.3518624 L6.30545393,16.1078983 L6.30545393,17.3738776 L9.31258961,19.1217459 L9.83423559,18.0272863 L7.39477349,16.7858098 L7.39477349,16.6877985 L9.83423559,15.4299867 L9.38163099,14.3518624 Z M13.5931552,12.8000167 L10.3712241,20.9757931 L11.4758862,21.1799833 L14.6517897,13.126721 L13.5931552,12.8000167 Z M15.6337115,19.1299135 L18.6945461,17.3738776 L18.6945461,16.0997306 L15.6797391,14.36003 L15.1734357,15.4463219 L17.6052265,16.6877985 L17.6052265,16.7858098 L15.1657644,18.0436215 L15.6337115,19.1299135 Z"/>
</svg>
