<svg width="24" height="24" viewBox="0 0 24 24">
  <path fill-rule="evenodd" d="M4,2.00246167 C4,1.44881738 4.44483697,1 4.9955775,1 L14.0044225,1 C14.5542648,1 15.3127724,1.31277239 15.7057732,1.70577316 L19.2942268,5.29422684 C19.6840146,5.68401459 20,6.45470893 20,6.9999602 L20,22.0000398 C20,22.5523026 19.5553691,23 18.9991283,23 L5.00087166,23 C4.4481055,23 4,22.5605417 4,21.9975383 L4,2.00246167 Z M13.2310267,13.1051596 C13.9422288,13.9402344 13.0441653,14.6916963 13.0441653,14.6916963 C13.0441653,14.6916963 14.8500288,13.7409496 14.0206772,12.5503885 C13.2460885,11.4401168 12.6520821,10.8884665 15.8677917,8.98644628 C15.8677917,8.98644628 10.8201883,10.2721307 13.2310267,13.1051596 Z M14.0206772,5.91518359 C14.6388062,8.39783286 11.8416074,9.14751147 10.8319119,10.6937616 C10.1439979,11.7471296 11.1693911,12.8789226 12.5666393,14.164607 C12.0217924,12.9086714 10.1739228,11.8094238 12.5676328,9.88150508 C15.5526866,7.47813198 14.0206772,5.91518359 14.0206772,5.91518359 Z M10.6103567,17.5441795 C10.6103567,17.5441795 10.0469111,17.8783472 11.0113418,17.9914251 C12.1797225,18.1273619 12.7768684,18.1078671 14.0644319,17.8593387 C14.0644319,17.8593387 14.4029443,18.0758081 14.8757014,18.2632986 C11.9893241,19.5249084 8.34326095,18.1902235 10.6103567,17.5441795 Z M10.2576567,15.8978614 C10.2576567,15.8978614 9.62569788,16.374937 10.5908439,16.4767477 C11.8389448,16.608064 12.8245971,16.6188044 14.5301548,16.2838666 C14.5301548,16.2838666 14.7660564,16.5277746 15.1369974,16.661158 C11.6471952,17.7018807 7.76018334,16.7432307 10.2576567,15.8978614 Z M17.0484921,18.7618955 C18.5749775,19.4641138 13.7321984,20.8757241 7.84721578,19.9024024 C5.68928813,19.5456596 8.88584265,18.2999781 9.47090731,18.720312 C9.47090731,18.720312 9.28595344,18.7069777 8.96230403,18.7785532 C8.6519678,18.8465216 7.66540143,19.1704353 8.19149068,19.4038461 C9.65498688,20.0534973 14.9232314,19.8980657 16.5892867,19.383338 C17.465453,19.1122751 17.0484921,18.7618955 17.0484921,18.7618955 Z M10.8813097,14.1920862 C10.8813097,14.1920862 9.84065609,14.1205107 8.56076257,14.7514777 C7.04735188,15.498076 12.30431,15.8376342 15.0255641,15.1077341 C15.3084791,14.910719 15.699529,14.7399267 15.699529,14.7399267 C15.699529,14.7399267 14.5859509,14.942778 13.476943,15.0381851 C12.1199523,15.1541406 10.6631325,15.1767157 9.93233821,15.0769315 C8.20154511,14.8412105 10.8813097,14.1920862 10.8813097,14.1920862 Z M15.6884811,16.9324641 C18.4547615,15.4664628 17.1757423,14.057649 16.283004,14.2474498 C16.064191,14.2938969 15.9666272,14.3341429 15.9666272,14.3341429 C15.9666272,14.3341429 16.0478575,14.2043667 16.2030057,14.1481925 C17.9691284,13.5149558 19.3273909,16.0158435 15.6328836,17.0063498 C15.6328836,17.0063903 15.6756845,16.9673602 15.6884811,16.9324641 Z M11.1531371,20.9049866 C9.40799756,20.7908549 9.06865052,20.5043501 9.06861078,20.5043907 C10.7264794,20.7831542 13.5216912,20.833938 15.7880319,20.3989728 C17.7968519,20.0132107 17.9824813,19.5274618 17.9824813,19.5274618 C17.8859111,20.8088095 13.8084214,21.0783323 11.1531371,20.9049866 Z"/>
</svg>
