<svg width="24" height="24" viewBox="0 0 24 24">
  <path fill-rule="evenodd" d="M4,2.00246167 C4,1.44881738 4.44483697,1 4.9955775,1 L14.0044225,1 C14.5542648,1 15.3127724,1.31277239 15.7057732,1.70577316 L19.2942268,5.29422684 C19.6840146,5.68401459 20,6.45470893 20,6.9999602 L20,22.0000398 C20,22.5523026 19.5553691,23 18.9991283,23 L5.00087166,23 C4.4481055,23 4,22.5605417 4,21.9975383 L4,2.00246167 Z M8.87648131,13.869146 L8.87648131,15.2707372 L10.8471396,15.2707372 L10.8471396,18.5692187 C10.8471396,19.6651998 10.7522951,19.8338122 8.53925636,19.7178912 L8.53925636,21.2248651 C11.5742809,21.3091714 12.596494,20.2553434 12.596494,18.5376039 L12.596494,13.869146 L8.87648131,13.869146 Z M14.1561594,19.6757381 L14.1561594,21.2459417 C17.6127151,21.3513245 18.93,20.1815755 18.93,18.9169819 C18.93,17.1781658 15.9476669,16.5985604 15.9476669,15.7871129 C15.9476669,15.3234286 16.4324277,15.1548161 18.476854,15.3128903 L18.3820095,13.7426867 C15.199449,13.5951508 14.0929297,14.7648998 14.0929297,15.9768019 C14.0929297,17.7050798 17.0647245,18.1687641 17.0647245,19.0750561 C17.0647245,19.5914318 16.3059684,19.823274 14.1561594,19.6757381 Z"/>
</svg>
