<svg width="24" height="24" viewBox="0 0 24 24">
  <path fill-rule="evenodd" d="M12.8957546,17.9160169 C12.9257674,17.9294753 12.9438305,17.9364702 12.9471834,17.9377033 C14.5190068,18.6030673 16.9356548,17.045783 16.9356548,14.1851951 C16.9356548,10.8323137 15.0447455,9.52080633 13.8243555,9.13410852 C13.5705906,9.06845525 13.3257359,9.02663547 13.0970051,9.00925028 C13.0517808,9.00804058 13.0067397,9.00743474 12.9619013,9.00743474 C12.9739009,9.00578681 12.9865626,9.00440213 12.9998616,9.00329147 C12.952567,9.00109904 12.9060374,9 12.8603407,9 C9.85862825,9 7,11.5362775 7,15.0064135 C7,18.8635034 10.2768318,21 12.8603407,21 C12.8364875,20.9964887 12.8103642,20.9924103 12.7821941,20.9875051 C11.9413239,20.8917485 9,20.1564002 9,15.8422219 C9,12.9462467 11.1670719,11.5004199 12.9361003,12.1050609 C12.9361003,12.1050609 12.923193,12.1101321 12.8995844,12.1207914 C13.1688715,12.2437414 14.5821507,12.9884602 14.5821507,15.0251511 C14.5821507,17.0602127 13.1349269,17.8065675 12.8957546,17.9160169 Z M4,2.00246167 C4,1.44881738 4.44483697,1 4.9955775,1 L14.0044225,1 C14.5542648,1 15.3127724,1.31277239 15.7057732,1.70577316 L19.2942268,5.29422684 C19.6840146,5.68401459 20,6.45470893 20,6.9999602 L20,22.0000398 C20,22.5523026 19.5553691,23 18.9991283,23 L5.00087166,23 C4.4481055,23 4,22.5605417 4,21.9975383 L4,2.00246167 Z M12.8957546,17.9160169 C12.6025407,17.784533 11.1687864,17.0361309 11.1687864,15.0164134 C11.1687864,12.988883 12.6469393,12.2348607 12.8995844,12.1207914 C12.8743121,12.1092526 12.8591157,12.1031902 12.8561089,12.1020501 C11.2912808,11.5567277 10.2836167,12.7964141 10.3012243,15.8993317 C10.326341,20.2999522 12.1199252,20.8721863 12.7821941,20.9875051 C12.8629682,20.9967035 12.9243603,21 12.9619013,21 C16.0546632,21 19,18.4652938 19,14.9973079 C19,11.2075389 15.7365587,9.0798553 13.0970051,9.00925028 C13.064287,9.00676347 13.0318988,9.00477661 12.9998616,9.00329147 C13.1791035,8.98832219 13.4741165,9.02313036 13.8243555,9.13410852 C15.6737038,9.61256618 17.9962694,11.356815 17.9999959,14.134208 C18.0037315,16.9198013 15.4608399,21.551961 12.8624694,17.9305666 C12.8624694,17.9305666 12.8742113,17.9258755 12.8957546,17.9160169 Z"/>
</svg>
