<svg width="24" height="24" viewBox="0 0 24 24">
  <path fill-rule="evenodd" d="M4,2.00246167 C4,1.44881738 4.44483697,1 4.9955775,1 L14.0044225,1 C14.5542648,1 15.3127724,1.31277239 15.7057732,1.70577316 L19.2942268,5.29422684 C19.6840146,5.68401459 20,6.45470893 20,6.9999602 L20,22.0000398 C20,22.5523026 19.5553691,23 18.9991283,23 L5.00087166,23 C4.4481055,23 4,22.5605417 4,21.9975383 L4,2.00246167 Z M8.74804688,20.7109375 C9.12695502,20.8437507 9.61132518,20.9101562 10.2011719,20.9101562 L10.8691406,20.9101562 L10.8691406,19.8496094 L10.03125,19.8496094 C9.64062305,19.8496094 9.35937586,19.7578134 9.1875,19.5742188 C9.01562414,19.3906241 8.9296875,19.0957052 8.9296875,18.6894531 L8.953125,17.8457031 C8.953125,17.466795 8.87695389,17.1269546 8.72460938,16.8261719 C8.57226486,16.5253891 8.371095,16.2949227 8.12109375,16.1347656 C8.39062635,15.9628898 8.60058519,15.7373061 8.75097656,15.4580078 C8.90136794,15.1787095 8.9765625,14.863283 8.9765625,14.5117188 L8.953125,13.3984375 C8.953125,13.0781234 9.01464782,12.8378914 9.13769531,12.6777344 C9.2607428,12.5175773 9.45117059,12.4375 9.70898438,12.4375 L10.8867188,12.4375 L10.8867188,11.3535156 L9.9140625,11.3535156 C9.16015248,11.3535156 8.58886913,11.536131 8.20019531,11.9013672 C7.81152149,12.2666034 7.6171875,12.8046839 7.6171875,13.515625 L7.64648438,14.6464844 C7.64648438,14.9785173 7.58691466,15.2207024 7.46777344,15.3730469 C7.34863222,15.5253914 7.16406375,15.6015625 6.9140625,15.6015625 L6.421875,15.6015625 L6.421875,16.6738281 L6.92578125,16.6738281 C7.16015742,16.6738281 7.33398381,16.7470696 7.44726562,16.8935547 C7.56054744,17.0400398 7.6171875,17.3027325 7.6171875,17.6816406 L7.58203125,18.6894531 C7.58203125,19.2558622 7.68163963,19.7011703 7.88085938,20.0253906 C8.08007912,20.349611 8.36913873,20.5781243 8.74804688,20.7109375 Z M14.6738281,20.9101562 L15.3417969,20.9101562 C15.9316436,20.9101562 16.4160137,20.8437507 16.7949219,20.7109375 C17.17383,20.5781243 17.4628896,20.349611 17.6621094,20.0253906 C17.8613291,19.7011703 17.9609375,19.2558622 17.9609375,18.6894531 L17.9257812,17.6816406 C17.9257812,17.3027325 17.9824213,17.0400398 18.0957031,16.8935547 C18.2089849,16.7470696 18.3828113,16.6738281 18.6171875,16.6738281 L19.1210938,16.6738281 L19.1210938,15.6015625 L18.6289062,15.6015625 C18.378905,15.6015625 18.1943365,15.5253914 18.0751953,15.3730469 C17.9560541,15.2207024 17.8964844,14.9785173 17.8964844,14.6464844 L17.9257812,13.515625 C17.9257812,12.8046839 17.7314473,12.2666034 17.3427734,11.9013672 C16.9540996,11.536131 16.3828163,11.3535156 15.6289062,11.3535156 L14.65625,11.3535156 L14.65625,12.4375 L15.8339844,12.4375 C16.0917982,12.4375 16.2822259,12.5175773 16.4052734,12.6777344 C16.5283209,12.8378914 16.5898438,13.0781234 16.5898438,13.3984375 L16.5664062,14.5117188 C16.5664062,14.863283 16.6416008,15.1787095 16.7919922,15.4580078 C16.9423836,15.7373061 17.1523424,15.9628898 17.421875,16.1347656 C17.1718737,16.2949227 16.9707039,16.5253891 16.8183594,16.8261719 C16.6660149,17.1269546 16.5898438,17.466795 16.5898438,17.8457031 L16.6132812,18.6894531 C16.6132812,19.0957052 16.5273446,19.3906241 16.3554688,19.5742188 C16.1835929,19.7578134 15.9023457,19.8496094 15.5117188,19.8496094 L14.6738281,19.8496094 L14.6738281,20.9101562 Z M14.155,19.32 L13.965,18.56 C12.605,19.09 11.975,18.98 11.835,18 C13.775,16.43 14.925,14.89 14.925,13.48 C14.925,12.62 14.445,12.14 13.715,12.14 C12.055,12.14 10.225,14.6 10.225,17.81 C10.225,17.89 10.225,17.97 10.235,18.05 L9.615,18.45 L9.965,19.06 L10.345,18.82 C10.725,20.31 12.085,20.57 14.155,19.32 Z M13.195,13.66 C13.365,13.66 13.515,13.78 13.515,14.11 C13.515,14.8 12.975,15.8 11.815,17 C11.925,14.98 12.645,13.66 13.195,13.66 Z"/>
</svg>
