<svg width="24" height="24" viewBox="0 0 24 24">
  <path fill-rule="evenodd" d="M4,2.00246167 C4,1.44881738 4.44483697,1 4.9955775,1 L14.0044225,1 C14.5542648,1 15.3127724,1.31277239 15.7057732,1.70577316 L19.2942268,5.29422684 C19.6840146,5.68401459 20,6.45470893 20,6.9999602 L20,22.0000398 C20,22.5523026 19.5553691,23 18.9991283,23 L5.00087166,23 C4.4481055,23 4,22.5605417 4,21.9975383 L4,2.00246167 Z M9.672,20 L9.768,19.04 L8.704,19.04 L8.704,13.776 L6.44,13.776 L6.352,14.704 L7.432,14.776 L7.432,19.04 L6.376,19.04 L6.376,20 L9.672,20 Z M13.3306666,15.408 C11.1466666,15.296 10.3546666,16.104 10.3546666,16.864 C10.3546666,17.968 12.2426666,18.216 12.2426666,18.688 C12.2426666,18.984 11.8026666,19.056 10.4666666,18.976 L10.4186666,20.096 C12.9146666,20.136 13.6106666,19.416 13.6106666,18.688 C13.6106666,17.568 11.6906666,17.2 11.6906666,16.736 C11.6906666,16.48 12.1706666,16.408 13.3706666,16.528 L13.3306666,15.408 Z M15.7973332,21.456 L15.7973332,20.128 C17.3573332,20.128 18.5653332,19.168 18.5653332,17.496 C18.5653332,16.2 17.8293332,15.368 16.8853332,15.368 C16.3893332,15.368 15.9893332,15.6 15.6933332,15.896 L15.6293332,15.464 L14.4533332,15.528 C14.5093332,16.376 14.5333332,17.584 14.5333332,20.048 L14.5333332,21.56 L15.7973332,21.456 Z M16.4053332,19.008 C16.2293332,19.008 16.0213332,18.976 15.7973332,18.912 C15.7893332,17.928 15.7813332,17.168 15.7653332,16.616 C15.9733332,16.496 16.1733332,16.432 16.3653332,16.432 C16.8773332,16.432 17.3093332,16.872 17.3093332,17.808 C17.3093332,18.632 16.9813332,19.008 16.4053332,19.008 Z"/>
</svg>
