<svg width="24" height="24" viewBox="0 0 24 24">
  <path fill-rule="evenodd" d="M9,14 C8.44771525,14 8,14.4477153 8,15 L8,20 C8,20.5522847 8.44771525,21 9,21 L17,21 C17.5522847,21 18,20.5522847 18,20 L18,15 C18,14.4477153 17.5522847,14 17,14 C17,13.4762741 17,12.8095614 17,12 C17,9.790861 15.209139,8 13,8 C10.790861,8 9,9.790861 9,12 C9,12.8095614 9,13.4762741 9,14.0001382 Z M10,14.0000001 C10,13.3765208 10,12.7098541 10,12 C10,10.3431458 11.3431458,9 13,9 C14.6568542,9 16,10.3431458 16,12 C16,12.7098541 16,13.3765208 16,14.0000001 L10,14 Z M4,2.00246167 C4,1.44881738 4.44483697,1 4.9955775,1 L14.0044225,1 C14.5542648,1 15.3127724,1.31277239 15.7057732,1.70577316 L19.2942268,5.29422684 C19.6840146,5.68401459 20,6.45470893 20,6.9999602 L20,22.0000398 C20,22.5523026 19.5553691,23 18.9991283,23 L5.00087166,23 C4.4481055,23 4,22.5605417 4,21.9975383 L4,2.00246167 Z"/>
</svg>
