<svg width="24" height="24" viewBox="0 0 24 24">
  <path fill-rule="evenodd" d="M4,2.00246167 C4,1.44881738 4.44483697,1 4.9955775,1 L14.0044225,1 C14.5542648,1 15.3127724,1.31277239 15.7057732,1.70577316 L19.2942268,5.29422684 C19.6840146,5.68401459 20,6.45470893 20,6.9999602 L20,22.0000398 C20,22.5523026 19.5553691,23 18.9991283,23 L5.00087166,23 C4.4481055,23 4,22.5605417 4,21.9975383 L4,2.00246167 Z M11,16.28 C11,18.02 11.88,19.3 15,19.09 L15.16,17.76 C13.37,17.77 12.59,17.34 12.59,16.07 C12.59,15.08 12.92,14.74 15.09,14.75 L14.98,13.23 C11.98,13.33 11,14.69 11,16.28 Z M7.86,21 L11.16,21 L11.3,19.72 L9.38,19.72 L9.38,12.46 L11.22,12.46 L11.22,11.18 L7.86,11.18 L7.86,21 Z M15.1333333,19.72 L15.0833333,21 L18.4733333,21 L18.4733333,11.18 L15.1133333,11.18 L15.1133333,12.46 L16.9633333,12.46 L16.9633333,19.72 L15.1333333,19.72 Z"/>
</svg>
