<svg width="24" height="24" viewBox="0 0 24 24">
  <path fill-rule="evenodd" d="M4,2.00246167 C4,1.44881738 4.44483697,1 4.9955775,1 L14.0044225,1 C14.5542648,1 15.3127724,1.31277239 15.7057732,1.70577316 L19.2942268,5.29422684 C19.6840146,5.68401459 20,6.45470893 20,6.9999602 L20,22.0000398 C20,22.5523026 19.5553691,23 18.9991283,23 L5.00087166,23 C4.4481055,23 4,22.5605417 4,21.9975383 L4,2.00246167 Z M11.2851821,19.1200963 L11.2140012,18.6574204 C10.7216666,18.7641918 10.6742127,18.7523283 10.6742127,18.6396252 C10.6742127,18.3371063 11.0716394,17.3227785 11.0716394,16.6762186 C11.0716394,16.3084506 10.9352093,16 10.4191478,16 C10.0098576,16 9.58277215,16.2194745 9.15568673,16.6524916 C9.13789151,16.2194745 8.94807576,16 8.56251253,16 C8.18881279,16 7.80324956,16.207611 7.42361807,16.6050377 L7.49479898,16.0652492 L6.58724246,16.1186348 C6.45674413,17.103304 6.30845058,17.8507035 6,19.4344786 L6.90755652,19.4344786 L7.34057369,17.2515976 C7.57784337,16.9965327 7.82104479,16.8778978 8.0345875,16.8778978 C8.27185718,16.8778978 8.31931111,17.0321231 8.24219847,17.4176863 L7.83290827,19.4344786 L8.68114737,19.4344786 L9.13195976,17.2575293 C9.39295641,17.0024644 9.61836261,16.8838296 9.82004183,16.8838296 C10.0276528,16.8838296 10.0751067,16.9965327 10.0751067,17.1744849 C10.0751067,17.6075021 9.69547525,18.5269221 9.69547525,19.0311201 C9.69547525,19.5827722 10.1996733,19.701407 11.2851821,19.1200963 Z M15.1170874,19.1200963 L15.0399748,18.6574204 C14.4883228,18.7641918 14.4705275,18.7463965 14.5179815,18.5031951 L14.9628621,16.1898157 C14.6128893,16.0830444 14.2332579,16.023727 13.9129438,16.023727 C12.5308479,16.023727 11.7063358,17.263461 11.7063358,18.4794681 C11.7063358,19.1853454 12.0207181,19.5234547 12.4240766,19.5234547 C12.7740493,19.5234547 13.2070665,19.2505946 13.586698,18.9006218 C13.5451758,19.5590452 13.9485342,19.7547927 15.1170874,19.1200963 Z M12.9342064,18.6455569 C12.7621859,18.6455569 12.643551,18.5031951 12.643551,18.1888128 C12.643551,17.5600481 12.9816603,16.7948534 13.3909505,16.7948534 C13.5095853,16.7948534 13.7112646,16.8304439 13.930739,16.8897613 C13.8358312,17.3643007 13.7171963,17.9871336 13.6578789,18.2896524 C13.3909505,18.4972634 13.1121586,18.6455569 12.9342064,18.6455569 Z M16.184801,20.5259191 L16.3805485,19.5115912 C16.4695246,19.517523 16.552569,19.5234547 16.6296816,19.5234547 C17.9880505,19.5234547 18.7947674,18.3015159 18.7947674,17.1151675 C18.7947674,16.3618363 18.4388629,16 18.023641,16 C17.6796,16 17.2703098,16.2491332 16.9084735,16.5813107 L16.9855861,16.0652492 L16.0839614,16.1186348 C15.9593948,17.0973723 15.6806029,18.4498094 15.2772445,20.5911683 L16.184801,20.5259191 Z M17.104221,18.75826 C16.9796544,18.75826 16.7779752,18.7226696 16.552569,18.6514887 L16.8313608,17.2100754 C17.080494,17.0083961 17.3474224,16.8541708 17.5372381,16.8541708 C17.7329856,16.8541708 17.8753474,17.0202596 17.8753474,17.3702324 C17.8753474,17.9812018 17.5253747,18.75826 17.104221,18.75826 Z"/>
</svg>
