<svg width="24" height="24" viewBox="0 0 24 24">
  <path fill-rule="evenodd" d="M20,17.4776803 L16.0055183,14.3708612 L12.1435139,17.2673646 L9.09926945,12.1936238 L4,17.2928932 L4,2.00246167 C4,1.44881738 4.44483697,1 4.9955775,1 L14.0044225,1 C14.5542648,1 15.3127724,1.31277239 15.7057732,1.70577316 L19.2942268,5.29422684 C19.6840146,5.68401459 20,6.45470893 20,6.9999602 L20,17.4776803 Z M20,18.7445419 L20,22.0000398 C20,22.5523026 19.5553691,23 18.9991283,23 L5.00087166,23 C4.4481055,23 4,22.5605417 4,21.9975383 L4,18.7071068 L8.90073055,13.8063762 L11.8564861,18.7326354 L15.9944817,15.6291388 L20,18.7445419 Z M15,11 C16.1045695,11 17,10.1045695 17,9 C17,7.8954305 16.1045695,7 15,7 C13.8954305,7 13,7.8954305 13,9 C13,10.1045695 13.8954305,11 15,11 Z"/>
</svg>
