<svg width="24" height="24" viewBox="0 0 24 24">
  <path fill-rule="evenodd" d="M4,2.00246167 C4,1.44881738 4.44483697,1 4.9955775,1 L14.0044225,1 C14.5542648,1 15.3127724,1.31277239 15.7057732,1.70577316 L19.2942268,5.29422684 C19.6840146,5.68401459 20,6.45470893 20,6.9999602 L20,22.0000398 C20,22.5523026 19.5553691,23 18.9991283,23 L5.00087166,23 C4.4481055,23 4,22.5605417 4,21.9975383 L4,2.00246167 Z M12.616,21 L16.384,21 L16.384,20.376 L15.004,20.376 L15.004,13.74 L16.06,13.74 C16.984,13.74 17.104,14.088 17.512,15.888 L17.968,15.888 L17.968,13.176 L11.032,13.176 L11.032,15.888 L11.488,15.888 C11.896,14.088 12.016,13.74 12.928,13.74 L13.996,13.74 L13.996,20.376 L12.616,20.376 L12.616,21 Z"/>
</svg>
