<svg width="24" height="24" viewBox="0 0 24 24">
  <path fill-rule="evenodd" d="M4,2.00246167 C4,1.44881738 4.44483697,1 4.9955775,1 L14.0044225,1 C14.5542648,1 15.3127724,1.31277239 15.7057732,1.70577316 L19.2942268,5.29422684 C19.6840146,5.68401459 20,6.45470893 20,6.9999602 L20,22.0000398 C20,22.5523026 19.5553691,23 18.9991283,23 L5.00087166,23 C4.4481055,23 4,22.5605417 4,21.9975383 L4,2.00246167 Z M18.8289084,16.1712666 C18.5622063,15.9084866 17.9660486,15.7712134 17.0639678,15.7594471 C16.4521217,15.751603 15.7186909,15.8065122 14.942117,15.9124087 C14.5969731,15.7123821 14.2400628,15.4966671 13.9576724,15.2338871 C13.204631,14.5279108 12.5770966,13.5513104 12.1848876,12.4766576 C12.2084201,12.3746833 12.2319527,12.2883973 12.2515631,12.1981892 C12.2515631,12.1981892 12.6751488,9.78610374 12.5614082,8.97030898 C12.5457199,8.85656836 12.5378757,8.82519164 12.506499,8.73890565 L12.4712002,8.6408534 C12.3574595,8.3757201 12.1299783,8.0933296 11.7730681,8.10862576 L11.5651973,8.1019582 L11.5612752,8.1019582 C11.1651441,8.1019582 10.8396106,8.30473027 10.7572467,8.60555459 C10.4983888,9.55862251 10.7650909,10.9784192 11.247508,12.8178795 L11.1220011,13.1198804 C10.7768572,13.9592077 10.3454273,14.8063792 9.96498451,15.5515764 L9.91399734,15.6496286 C9.51394413,16.4340467 9.14918974,17.100802 8.81973417,17.665583 L8.47851232,17.8459991 C8.45497977,17.8616875 7.87058833,18.1676105 7.73331517,18.2499744 C6.57237647,18.9441844 5.80050912,19.7325245 5.67264897,20.360059 C5.63185924,20.5561635 5.66245154,20.8110993 5.86914569,20.9326841 L6.19860127,21.0974119 C6.34097315,21.1680096 6.49393467,21.2033084 6.64689618,21.2033084 C7.47445722,21.2033084 8.43536932,20.1757207 9.75711373,17.8656096 C11.2867289,17.3675041 13.028137,16.9517626 14.5538301,16.7242813 C15.7147688,17.3792704 17.1424096,17.8342329 18.0444904,17.8342329 C18.2052961,17.8342329 18.3425692,17.8185445 18.4563098,17.7871678 C18.6288818,17.7440248 18.7739991,17.6459725 18.8642072,17.5086994 C19.0367792,17.2459193 19.0760001,16.885087 19.0250129,16.5124885 C19.0132466,16.4026699 18.9230386,16.2653968 18.8289084,16.1712666 Z M18.5739725,17.0380486 C18.4916086,17.0890357 18.2562832,17.1204125 18.1072438,17.1204125 C17.6209046,17.1204125 17.0247469,16.8968533 16.1814975,16.536021 C16.507031,16.5124885 16.8011878,16.5007222 17.0678899,16.5007222 C17.5542291,16.5007222 17.6954243,16.5007222 18.1739193,16.622307 C18.6484923,16.7399697 18.6524143,16.9870614 18.5739725,17.0380486 L18.5739725,17.0380486 Z M10.1375565,17.1125683 C10.3258168,16.7831127 10.5179992,16.4340467 10.7141037,16.0614481 C11.1925987,15.1554453 11.4985218,14.4416248 11.7220809,13.8572334 C12.1731213,14.6769502 12.7339802,15.3711602 13.3889693,15.928097 C13.4713332,15.9986946 13.5576191,16.0653702 13.6517493,16.1359678 C12.3143165,16.4026699 11.1572999,16.7242813 10.1375565,17.1125683 L10.1375565,17.1125683 Z M11.6985484,8.52711278 C11.9652505,8.52711278 12.118212,9.19622137 12.1299783,9.8276779 C12.1417446,10.4552123 11.9966272,10.8944864 11.812289,11.223942 C11.6593275,10.7376028 11.5887299,9.97671733 11.5887299,9.47861187 C11.5887299,9.47861187 11.5769636,8.52711278 11.6985484,8.52711278 L11.6985484,8.52711278 Z M6.46648003,20.5757739 C6.61944155,20.1639545 7.21559927,19.3481597 8.09806957,18.622573 C8.15297883,18.57943 8.29025199,18.450001 8.41575887,18.3323383 C7.49406767,19.8070442 6.87437742,20.3914357 6.46648003,20.5757739 L6.46648003,20.5757739 Z"/>
</svg>
