<svg width="24" height="24" viewBox="0 0 24 24">
  <path fill-rule="evenodd" d="M4,2.00246167 C4,1.44881738 4.44483697,1 4.9955775,1 L14.0044225,1 C14.5542648,1 15.3127724,1.31277239 15.7057732,1.70577316 L19.2942268,5.29422684 C19.6840146,5.68401459 20,6.45470893 20,6.9999602 L20,22.0000398 C20,22.5523026 19.5553691,23 18.9991283,23 L5.00087166,23 C4.4481055,23 4,22.5605417 4,21.9975383 L4,2.00246167 Z M8.6152313,16.3036692 C8.98951289,16.3036692 9.23894086,16.3727358 9.36363934,16.5109312 C9.48824473,16.6490955 9.5179378,16.8862677 9.45274957,17.2223547 C9.38461375,17.572373 9.25349264,17.8222043 9.05907596,17.9718797 C8.86465928,18.1215551 8.56881456,18.1963308 8.17163487,18.1963308 L7.57243683,18.1963308 L7.94026475,16.3036692 L8.6152313,16.3036692 Z M6.21499512,20.1122628 L7.09393475,15.5900427 L8.98830283,15.5900427 C9.55818013,15.5900427 9.97388308,15.739594 10.2351945,16.0387276 C10.4965059,16.3378302 10.5751599,16.7553638 10.4709394,17.2914524 C10.4280288,17.5122733 10.355425,17.7141985 10.2532523,17.8970731 C10.1509555,18.0801028 10.0174143,18.2474947 9.85231835,18.3991869 C9.65563669,18.5833025 9.43711184,18.7144857 9.19665074,18.7926123 C8.95618964,18.870925 8.64991976,18.9099573 8.27759289,18.9099573 L7.4337761,18.9099573 L7.20010996,20.1122628 L6.21499512,20.1122628 Z M11.1944326,14.3877372 L12.1717906,14.3877372 L11.9381245,15.5900427 L12.8088419,15.5900427 C13.3566588,15.5900427 13.7345706,15.6856687 13.9425462,15.8766723 C14.1505218,16.0678001 14.2128245,16.377483 14.1296715,16.8055658 L13.7207325,18.9099573 L12.7278608,18.9099573 L13.1166632,16.9090727 C13.160908,16.6814569 13.1446807,16.5261966 13.0678263,16.4434159 C12.9910028,16.3606352 12.8274893,16.3191828 12.5774408,16.3191828 L11.79633,16.3191828 L11.292851,18.9099573 L10.315493,18.9099573 L11.1944326,14.3877372 Z M16.3042776,16.3036692 C16.6785281,16.3036692 16.9279561,16.3727358 17.0526856,16.5109312 C17.177291,16.6490955 17.2069841,16.8862677 17.1417648,17.2223547 C17.07366,17.572373 16.9425389,17.8222043 16.7480912,17.9718797 C16.5537056,18.1215551 16.2578608,18.1963308 15.8607122,18.1963308 L15.2614831,18.1963308 L15.629311,16.3036692 L16.3042776,16.3036692 Z M13.9040414,20.1122628 L14.8891562,20.1122628 L15.1228224,18.9099573 L15.9666081,18.9099573 C16.338935,18.9099573 16.6452049,18.870925 16.885666,18.7926123 C17.1261271,18.7144857 17.3446519,18.5833025 17.5413646,18.3991869 C17.7064295,18.2474947 17.8400018,18.0801028 17.9422986,17.8970731 C18.0444713,17.7141985 18.1170751,17.5122733 18.1599547,17.2914524 C18.2642062,16.7553638 18.1855522,16.3378302 17.9242408,16.0387276 C17.6629294,15.739594 17.2472264,15.5900427 16.6773181,15.5900427 L14.78295,15.5900427 L13.9040414,20.1122628 L13.9040414,20.1122628 Z"/>
</svg>
