<svg width="24" height="24" viewBox="0 0 24 24">
  <path fill-rule="evenodd" d="M4,2.00246167 C4,1.44881738 4.44483697,1 4.9955775,1 L14.0044225,1 C14.5542648,1 15.3127724,1.31277239 15.7057732,1.70577316 L19.2942268,5.29422684 C19.6840146,5.68401459 20,6.45470893 20,6.9999602 L20,22.0000398 C20,22.5523026 19.5553691,23 18.9991283,23 L5.00087166,23 C4.4481055,23 4,22.5605417 4,21.9975383 L4,2.00246167 Z M7.5,15 C7.77614237,15 8,14.7761424 8,14.5 C8,14.2238576 7.77614237,14 7.5,14 C7.22385763,14 7,14.2238576 7,14.5 C7,14.7761424 7.22385763,15 7.5,15 Z M7.5,17 C7.77614237,17 8,16.7761424 8,16.5 C8,16.2238576 7.77614237,16 7.5,16 C7.22385763,16 7,16.2238576 7,16.5 C7,16.7761424 7.22385763,17 7.5,17 Z M7.5,19 C7.77614237,19 8,18.7761424 8,18.5 C8,18.2238576 7.77614237,18 7.5,18 C7.22385763,18 7,18.2238576 7,18.5 C7,18.7761424 7.22385763,19 7.5,19 Z M9.5,14 C9.22385763,14 9,14.2238576 9,14.5 C9,14.7761424 9.22385763,15 9.5,15 L16.5,15 C16.7761424,15 17,14.7761424 17,14.5 C17,14.2238576 16.7761424,14 16.5,14 L9.5,14 Z M9.5,16 C9.22385763,16 9,16.2238576 9,16.5 C9,16.7761424 9.22385763,17 9.5,17 L16.5,17 C16.7761424,17 17,16.7761424 17,16.5 C17,16.2238576 16.7761424,16 16.5,16 L9.5,16 Z M9.5,18 C9.22385763,18 9,18.2238576 9,18.5 C9,18.7761424 9.22385763,19 9.5,19 L16.5,19 C16.7761424,19 17,18.7761424 17,18.5 C17,18.2238576 16.7761424,18 16.5,18 L9.5,18 Z"/>
</svg>
