<svg width="24" height="24" viewBox="0 0 24 24">
  <path fill-rule="evenodd" d="M4,2.00246167 C4,1.44881738 4.44483697,1 4.9955775,1 L14.0044225,1 C14.5542648,1 15.3127724,1.31277239 15.7057732,1.70577316 L19.2942268,5.29422684 C19.6840146,5.68401459 20,6.45470893 20,6.9999602 L20,22.0000398 C20,22.5523026 19.5553691,23 18.9991283,23 L5.00087166,23 C4.4481055,23 4,22.5605417 4,21.9975383 L4,2.00246167 Z M11.3186385,11.1968369 L11.3186385,12.9366211 L12.0165718,12.9366211 L12.0165718,19.0258659 L10.9572088,19.0258659 L10.9572088,20.7656501 L15.1697347,20.7656501 L15.1697347,19.0258659 L13.9358883,19.0258659 L13.9358883,17.5845118 C14.1560708,17.6818725 14.3845585,17.7570084 14.6213585,17.8099218 C14.8581585,17.8628352 15.1136494,17.8892915 15.3878388,17.8892915 C15.8739019,17.8892915 16.3215302,17.7993401 16.7307372,17.6194345 C17.1399442,17.4395289 17.4920231,17.1940143 17.7869844,16.8828835 C18.0819458,16.5717526 18.3114722,16.2066556 18.4755704,15.7875814 C18.6396686,15.3685072 18.7217165,14.9219247 18.7217165,14.4478205 C18.7217165,13.9779495 18.6375915,13.5334835 18.4693389,13.1144093 C18.3010862,12.6953351 18.0674056,12.3291798 17.7682898,12.0159324 C17.469174,11.702685 17.1160566,11.455054 16.7089268,11.2730318 C16.301797,11.0910097 15.8614387,11 15.3878388,11 C15.1676564,11 14.9537087,11.0264563 14.7459894,11.0793697 C14.5382702,11.1322831 14.3347083,11.203186 14.1352978,11.2920806 L14.1352978,11.1968369 L11.3186385,11.1968369 Z M15.2507448,12.7524834 C15.4667728,12.7524834 15.6703346,12.7916387 15.8614364,12.8699506 C16.0525381,12.9482624 16.218711,13.0604371 16.3599602,13.2064782 C16.5012093,13.3525192 16.6123374,13.5313638 16.6933479,13.7430174 C16.7743584,13.9546711 16.8148631,14.1938361 16.8148631,14.4605197 C16.8148631,14.7018048 16.7733199,14.9250961 16.6902322,15.1304001 C16.6071444,15.3357041 16.4949777,15.5134905 16.3537286,15.6637646 C16.2124795,15.8140387 16.0463066,15.9304465 15.8552048,16.0129914 C15.6641031,16.0955363 15.4626184,16.1368081 15.2507448,16.1368081 C14.9640922,16.1368081 14.7065241,16.06908 14.4780329,15.9336217 C14.2495417,15.7981633 14.0688287,15.6224934 13.9358883,15.4066067 L13.9358883,13.5525301 C14.093755,13.2985458 14.286931,13.1017108 14.5154222,12.9620194 C14.7439134,12.822328 14.9890185,12.7524834 15.2507448,12.7524834 Z"/>
</svg>
