<svg width="24" height="24" viewBox="0 0 24 24">
  <path fill-rule="evenodd" d="M4,2.00246167 C4,1.44881738 4.44483697,1 4.9955775,1 L14.0044225,1 C14.5542648,1 15.3127724,1.31277239 15.7057732,1.70577316 L19.2942268,5.29422684 C19.6840146,5.68401459 20,6.45470893 20,6.9999602 L20,22.0000398 C20,22.5523026 19.5553691,23 18.9991283,23 L5.00087166,23 C4.4481055,23 4,22.5605417 4,21.9975383 L4,2.00246167 Z M12.8350536,10.1823796 C12.4187483,10.1843654 12.0211861,10.2208128 11.6713723,10.2843556 C10.6408646,10.4712458 10.4537644,10.8624231 10.4537643,11.5838207 L10.4537643,12.5365675 L12.8889803,12.5365675 L12.8889803,12.8541497 L10.4537643,12.8541497 L9.53984871,12.8541497 C8.83210713,12.8541497 8.21238834,13.2908369 8.01854823,14.1215652 C7.79495612,15.0737728 7.78503859,15.6679658 8.01854823,16.6622234 C8.19165209,17.4023103 8.60504754,17.9296387 9.31278894,17.9296389 L10.1500718,17.9296389 L10.1500718,16.7875081 C10.1500718,15.9623861 10.8455236,15.2345602 11.6713723,15.23456 L14.1037501,15.23456 C14.7808379,15.23456 15.3213584,14.6622673 15.3213581,13.9642309 L15.3213581,11.5838207 C15.3213581,10.9063424 14.7646094,10.397424 14.1037501,10.2843556 C13.6854163,10.2128698 13.2513589,10.1803939 12.8350536,10.1823796 Z M11.518107,10.9486561 C11.769648,10.9486561 11.9750647,11.1629708 11.9750647,11.4264863 C11.9750646,11.6890679 11.769648,11.9014029 11.518107,11.9014029 C11.2656641,11.9014028 11.0611492,11.6890678 11.0611492,11.4264863 C11.0611491,11.1629708 11.2656641,10.9486561 11.518107,10.9486561 Z M15.6250505,12.8541497 L15.6250505,13.9642309 C15.6250505,14.8248618 14.9142722,15.5492286 14.1037501,15.5492287 L11.6713723,15.5492287 C11.0051033,15.5492287 10.4537644,16.134604 10.4537643,16.8195577 L10.4537643,19.1999677 C10.4537643,19.8774461 11.0276431,20.2759313 11.6713723,20.4702968 C12.4422249,20.7029754 13.1814321,20.7450263 14.1037501,20.4702968 C14.7168255,20.2880789 15.3213584,19.9213645 15.3213581,19.1999677 L15.3213581,18.2472212 L12.8889803,18.2472212 L12.8889803,17.9296389 L15.3213581,17.9296389 L16.5389665,17.9296389 C17.2467081,17.9296389 17.5104417,17.4228677 17.7565736,16.6622234 C18.0108197,15.8791519 18.0000016,15.1261018 17.7565736,14.1215652 C17.5816667,13.398299 17.2476082,12.8541497 16.5389665,12.8541497 L15.6250505,12.8541497 Z M14.2570154,18.8823857 C14.5094585,18.882386 14.7139732,19.094721 14.7139732,19.357302 C14.713973,19.6208172 14.5094582,19.8351322 14.2570154,19.8351322 C14.0054741,19.8351322 13.8000576,19.6208172 13.8000576,19.357302 C13.8000578,19.094721 14.0054738,18.8823857 14.2570154,18.8823857 Z"/>
</svg>
