<svg width="24" height="24" viewBox="0 0 24 24">
  <path fill-rule="evenodd" d="M4,2.00246167 C4,1.44881738 4.44483697,1 4.9955775,1 L14.0044225,1 C14.5542648,1 15.3127724,1.31277239 15.7057732,1.70577316 L19.2942268,5.29422684 C19.6840146,5.68401459 20,6.45470893 20,6.9999602 L20,22.0000398 C20,22.5523026 19.5553691,23 18.9991283,23 L5.00087166,23 C4.4481055,23 4,22.5605417 4,21.9975383 L4,2.00246167 Z M15.6332299,12.0342773 L15.6332299,12.0342773 L15.6336339,12.034054 L13.2210391,12.0230896 L13.1883383,12 L11.2822008,12.7133642 C10.681657,13.2719376 9.51630381,14.3771435 9.47428918,14.3979297 C9.43271681,14.4191582 8.70475806,15.7950267 8.35581551,16.4513395 L8.38721928,16.540417 L8.27080507,18.9751987 L8.27001721,18.9766399 C8.27010396,18.9797607 8.27019465,18.9828759 8.27028928,18.9859864 L8.27001721,18.9916767 L8.27044223,18.9909016 C8.32384385,20.6695329 9.52226716,20.7193725 10.0614113,20.7348623 L10.0558601,20.7381585 L16.5335873,20.2985971 L16.5338366,20.2953337 L16.55172,20.2941302 L16.5441151,20.2935332 L16.5374748,20.247702 L17.0325,13.7668258 L17.0271511,13.7776673 C17.0332729,13.5642339 17.0150096,13.3533368 16.9633947,13.1553593 L16.9652766,13.1556235 C16.8220715,12.5487699 16.3824705,12.1570354 15.6332299,12.0342773 Z"/>
</svg>
