<svg width="24" height="24" viewBox="0 0 24 24">
  <path fill-rule="evenodd" d="M4,2.00246167 C4,1.44881738 4.44483697,1 4.9955775,1 L14.0044225,1 C14.5542648,1 15.3127724,1.31277239 15.7057732,1.70577316 L19.2942268,5.29422684 C19.6840146,5.68401459 20,6.45470893 20,6.9999602 L20,22.0000398 C20,22.5523026 19.5553691,23 18.9991283,23 L5.00087166,23 C4.4481055,23 4,22.5605417 4,21.9975383 L4,2.00246167 Z M18.5842799,14.6233302 L18.0890733,14.3167845 C18.0849033,14.2685486 18.0801699,14.2204254 18.0749857,14.1725276 L18.5005433,13.775596 C18.5438204,13.7352491 18.5632049,13.6755178 18.551484,13.6177024 C18.5401013,13.5596615 18.4994163,13.5118764 18.4440803,13.4912522 L17.9000743,13.2878276 C17.8864375,13.2407187 17.8721245,13.1939479 17.8574734,13.1474026 L18.1968151,12.6760884 C18.2314142,12.6281907 18.2385143,12.5658672 18.2159742,12.5112074 C18.1934341,12.456773 18.1441839,12.4177786 18.0859176,12.408199 L17.5122714,12.3148829 C17.4899566,12.2713804 17.4667403,12.2285542 17.4432986,12.186066 L17.6843652,11.6569365 C17.7090467,11.6030656 17.7039752,11.540404 17.6710666,11.4914919 C17.6382707,11.4423544 17.5827093,11.4136158 17.5234287,11.4158698 L16.9412172,11.4361559 C16.9111261,11.3985139 16.8804715,11.36121 16.8492534,11.3245823 L16.9830291,10.7574726 C16.9965532,10.6998826 16.9795354,10.6395877 16.9376107,10.5977758 C16.8960242,10.5560766 16.8356167,10.5388334 16.7780266,10.5523574 L16.2110297,10.6860204 C16.1742893,10.654915 16.1369853,10.6241477 16.0992306,10.5940567 L16.1196294,10.0118451 C16.1218835,9.95290268 16.0931448,9.89689046 16.0440073,9.86420727 C15.9947571,9.83129868 15.9324337,9.82633986 15.8786753,9.8507959 L15.3496585,10.0919753 C15.306945,10.0685335 15.2641187,10.0453172 15.2208417,10.0228898 L15.1273001,9.44913079 C15.1178333,9.39097725 15.0788388,9.34161437 15.0242917,9.31907424 C14.9698573,9.29642141 14.9074212,9.30374695 14.8595234,9.33823335 L14.3878712,9.677575 C14.3414385,9.66281122 14.2947804,9.64861093 14.2476716,9.63508686 L14.0442469,9.09096813 C14.0236227,9.03551941 13.9758376,8.99483447 13.9177968,8.98333901 C13.8598686,8.97195624 13.80025,8.99122805 13.7600159,9.0342797 L13.3630842,9.46017545 C13.3151864,9.45487852 13.2669505,9.45003239 13.2188273,9.44608787 L12.9122816,8.95076852 C12.8812889,8.90061673 12.8264037,8.87007486 12.7673486,8.87007486 C12.7082934,8.87007486 12.6534082,8.90061673 12.6225282,8.95076852 L12.3159825,9.44608787 C12.2677466,9.45003239 12.2195107,9.45487852 12.1716129,9.46017545 L11.7745685,9.0342797 C11.7343344,8.99122805 11.6746031,8.97195624 11.6167876,8.98333901 C11.5587468,8.99494718 11.5109617,9.03551941 11.4903375,9.09096813 L11.2869128,9.63508686 C11.239804,9.64861093 11.1931459,9.66292392 11.1466005,9.677575 L10.675061,9.33823335 C10.6271632,9.30363425 10.5647271,9.29630871 10.51018,9.31907424 C10.4557456,9.34161437 10.4166384,9.39097725 10.4071716,9.44913079 L10.31363,10.0228898 C10.270353,10.0453172 10.2275267,10.0684208 10.1848132,10.0919753 L9.65579636,9.8507959 C9.60203815,9.82622716 9.53937659,9.83129868 9.49046451,9.86420727 C9.44132703,9.89689046 9.41258836,9.95290268 9.41484238,10.0118451 L9.43512849,10.5940567 C9.39748648,10.6241477 9.36018256,10.654915 9.32332945,10.6860204 L8.75633249,10.5523574 C8.69874246,10.5389461 8.63833491,10.5560766 8.59663567,10.5977758 C8.55471103,10.6395877 8.53769323,10.6998826 8.55121731,10.7574726 L8.68476758,11.3245823 C8.6537749,11.3613227 8.62312032,11.3985139 8.59302925,11.4361559 L8.0108177,11.4158698 C7.95210066,11.4141793 7.89597574,11.4423544 7.86317985,11.4914919 C7.83027126,11.540404 7.82531243,11.6030656 7.84976848,11.6569365 L8.09094786,12.186066 C8.06750613,12.2285542 8.04428979,12.2713804 8.02186237,12.3148829 L7.44821607,12.408199 C7.38994983,12.4176659 7.34081235,12.4566603 7.31815952,12.5112074 C7.29561939,12.5658672 7.30294493,12.6281907 7.33731863,12.6760884 L7.67666028,13.1474026 C7.6618965,13.1939479 7.64758351,13.2407187 7.63405944,13.2878276 L7.08994071,13.4912522 C7.03471739,13.5118764 6.99403245,13.5596615 6.98253699,13.6177024 C6.97104152,13.6756305 6.99031333,13.7352491 7.03347768,13.775596 L7.45914803,14.1725276 C7.4538511,14.2204254 7.44911767,14.2686613 7.44506045,14.3167845 L6.9498538,14.6233302 C6.89970201,14.6543229 6.86916014,14.7090954 6.86916014,14.7682633 C6.86916014,14.8274311 6.89970201,14.8822036 6.9498538,14.9130836 L7.44506045,15.2196294 C7.44911767,15.2678652 7.4538511,15.3159884 7.45914803,15.3638862 L7.03347768,15.7609306 C6.99031333,15.8011647 6.97104152,15.8608961 6.98253699,15.9187115 C6.99403245,15.9767523 7.03471739,16.0244247 7.08994071,16.0451616 L7.63405944,16.2485863 C7.64758351,16.2956952 7.6618965,16.3424659 7.67666028,16.3890113 L7.33731863,16.8604381 C7.30283223,16.9084486 7.29550669,16.970772 7.31815952,17.0252065 C7.34081235,17.0798663 7.39006253,17.1188607 7.44832877,17.1282148 L8.02186237,17.221531 C8.04428979,17.2650334 8.06728073,17.3078597 8.09094786,17.3505732 L7.84976848,17.8794774 C7.82519973,17.9332357 7.83027126,17.9957845 7.86317985,18.044922 C7.89608844,18.0941722 7.95210066,18.1229109 8.0108177,18.1205442 L8.59280385,18.1001453 C8.62312032,18.1380128 8.6536622,18.1750913 8.68476758,18.2119444 L8.55121731,18.7791668 C8.53769323,18.8366441 8.55471103,18.8967135 8.59663567,18.9385255 C8.63822221,18.9805628 8.69874246,18.9973552 8.75633249,18.9838311 L9.32332945,18.8502809 C9.36018256,18.8816116 9.39748648,18.9120408 9.43512849,18.9420192 L9.41484238,19.5243434 C9.41258836,19.5832859 9.44132703,19.6391854 9.49046451,19.672094 C9.53937659,19.7048899 9.60203815,19.7098487 9.65579636,19.68528 L10.1848132,19.4442133 C10.227414,19.4678804 10.2702403,19.4908713 10.31363,19.5132988 L10.4071716,20.0867197 C10.4166384,20.1450986 10.4556329,20.1944615 10.51018,20.2168889 C10.5646144,20.2395417 10.6271632,20.2322162 10.675061,20.1978425 L11.1463751,19.8582755 C11.1929205,19.8730392 11.2396913,19.8874649 11.2868001,19.900989 L11.4902248,20.4448823 C11.510849,20.5001056 11.5586341,20.541016 11.6166749,20.552286 C11.6746031,20.5640069 11.7342217,20.5446224 11.7744558,20.5013454 L12.1715002,20.075675 C12.219398,20.0811973 12.2676339,20.0858181 12.3158698,20.0901007 L12.6224155,20.5853073 C12.6532955,20.6352337 12.7081807,20.666001 12.7672359,20.666001 C12.826291,20.666001 12.8811762,20.6353464 12.9121689,20.5853073 L13.2187146,20.0901007 C13.2669505,20.0858181 13.3150737,20.0811973 13.3629715,20.075675 L13.7599032,20.5013454 C13.8001373,20.5446224 13.8598686,20.5640069 13.9176841,20.552286 C13.9757249,20.5409033 14.02351,20.5001056 14.0441342,20.4448823 L14.2475589,19.900989 C14.2946677,19.8874649 14.3414385,19.8730392 14.3879839,19.8582755 L14.8594107,20.1978425 C14.9073085,20.2322162 14.9697446,20.2395417 15.024179,20.2168889 C15.0787261,20.1944615 15.1177206,20.1449859 15.1271874,20.0867197 L15.220729,19.5132988 C15.264006,19.4908713 15.3068323,19.4675423 15.3495458,19.4442133 L15.8785626,19.68528 C15.932321,19.7098487 15.9948698,19.7048899 16.0438946,19.672094 C16.0930321,19.6391854 16.1216581,19.5833986 16.1195167,19.5243434 L16.0992306,18.9420192 C16.1368726,18.9119281 16.1741766,18.8816116 16.210917,18.8502809 L16.7779139,18.9838311 C16.835504,18.9973552 16.8959115,18.9805628 16.937498,18.9385255 C16.9794227,18.8967135 16.9964405,18.8366441 16.9829164,18.7791668 L16.8493661,18.2119444 C16.8804715,18.1750913 16.9111261,18.1380128 16.9411045,18.1001453 L17.523316,18.1205442 C17.5820331,18.1229109 17.638158,18.0941722 17.6709539,18.044922 C17.7038625,17.9957845 17.708934,17.9332357 17.6842525,17.8794774 L17.4431859,17.3505732 C17.4667403,17.3078597 17.4898439,17.2650334 17.5121586,17.221531 L18.0858049,17.1282148 C18.1441839,17.1188607 18.1933214,17.0798663 18.2158615,17.0252065 C18.2384016,16.970772 18.2313015,16.9084486 18.1967024,16.8604381 L17.8573607,16.3890113 C17.8720118,16.3424659 17.8863248,16.2956952 17.8999616,16.2485863 L18.4439676,16.0451616 C18.4993036,16.0244247 18.5401013,15.9767523 18.5513713,15.9187115 C18.5630922,15.8607834 18.5437077,15.8011647 18.5004306,15.7609306 L18.074873,15.3638862 C18.0800572,15.3159884 18.0847906,15.2677525 18.0889606,15.2196294 L18.5841672,14.9130836 C18.634319,14.8822036 18.6648609,14.8273184 18.6648609,14.7682633 C18.6648609,14.7092081 18.6344317,14.6543229 18.5842799,14.6233302 L18.5842799,14.6233302 Z M15.2698664,18.7313817 C15.0807548,18.690584 14.9605032,18.5041772 15.0010754,18.314502 C15.0415349,18.1250522 15.2278291,18.0044625 15.4168281,18.0452601 C15.6059398,18.0857197 15.7264168,18.2724646 15.6858445,18.4618017 C15.6452723,18.6511388 15.4588654,18.7718412 15.2698664,18.7313817 Z M15.1016044,17.5933304 C14.9290597,17.5563646 14.7593325,17.666135 14.7223667,17.8390178 L14.5465537,18.6594787 C14.0040128,18.9057296 13.4015151,19.0425482 12.7670105,19.0425482 C12.1179674,19.0425482 11.5023965,18.8989675 10.9501633,18.6422355 L10.774463,17.8217746 C10.7374972,17.6491172 10.56777,17.5391214 10.395338,17.5761999 L9.67101095,17.7317268 C9.53655908,17.5933304 9.41146136,17.445918 9.29650669,17.2902784 L12.8208814,17.2902784 C12.8607774,17.2902784 12.8873747,17.2830655 12.8873747,17.2467759 L12.8873747,16.0000814 C12.8873747,15.9637917 12.8607774,15.9565789 12.8208814,15.9565789 L11.7901212,15.9565789 L11.7901212,15.166322 L12.904956,15.166322 C13.0067247,15.166322 13.4490748,15.1953987 13.5905141,15.7608179 C13.6348054,15.934715 13.7320661,16.5003595 13.7985595,16.6814695 C13.8648275,16.884556 14.1346328,17.2902784 14.4221322,17.2902784 L16.1783465,17.2902784 C16.1982945,17.2902784 16.2195949,17.2880244 16.2420223,17.2839671 C16.1201929,17.4495244 15.98653,17.6061783 15.8426111,17.7525764 L15.1016044,17.5933304 Z M10.2270759,18.7142512 C10.0379643,18.7550488 9.85178279,18.6344591 9.81109785,18.4450093 C9.77063832,18.2552214 9.89088991,18.0689273 10.0800016,18.0281296 C10.2691133,17.9876701 10.4554075,18.1082598 10.4959797,18.2977096 C10.5364392,18.4870467 10.4160749,18.6736789 10.2270759,18.7142512 Z M8.89010816,13.2927864 C8.96854781,13.4698391 8.88875575,13.677321 8.71192843,13.755648 C8.53510112,13.8342003 8.32818273,13.7542955 8.24974308,13.5771301 C8.17130342,13.3999647 8.25109548,13.1928209 8.4279228,13.1142686 C8.60486282,13.0358289 8.81166851,13.115621 8.89010816,13.2927864 Z M8.47920159,14.2668581 L9.23373243,13.9315737 C9.39489436,13.8600088 9.46769898,13.6711225 9.39613407,13.5096224 L9.24071987,13.1582218 L9.85189549,13.1582218 L9.85189549,15.9130765 L8.6188377,15.9130765 C8.51188478,15.5371071 8.45452015,15.1402881 8.45452015,14.7301705 C8.45452015,14.5736293 8.4629727,14.4188913 8.47920159,14.2668581 L8.47920159,14.2668581 Z M11.7903466,13.9993068 L11.7903466,13.1872986 L13.2457628,13.1872986 C13.3209341,13.1872986 13.7765829,13.2741908 13.7765829,13.6148848 C13.7765829,13.8977635 13.4270981,13.9991941 13.1397115,13.9991941 L11.7903466,13.9991941 L11.7903466,13.9993068 Z M17.0796136,14.7301705 C17.0796136,14.8379123 17.075669,14.9445271 17.06778,15.050353 L16.6253173,15.050353 C16.5810259,15.050353 16.5632192,15.0794298 16.5632192,15.1228195 L16.5632192,15.3260188 C16.5632192,15.8043203 16.2935265,15.908343 16.0571933,15.9348277 C15.83213,15.9601853 15.5826107,15.8406099 15.5518435,15.7028897 C15.4190821,14.9561353 15.1978507,14.7966638 14.8484787,14.5211108 C15.2820381,14.2457831 15.7331788,13.8396099 15.7331788,13.295942 C15.7331788,12.7088843 15.3307248,12.3391135 15.0564114,12.1577782 C14.6715387,11.904089 14.2454176,11.853261 14.1304629,11.853261 L9.55447848,11.853261 C10.1750082,11.1607155 11.0159805,10.6701296 11.967174,10.4916118 L12.5065593,11.0574817 C12.6285014,11.1851716 12.8304609,11.189905 12.958038,11.0678502 L13.56155,10.4905975 C14.826164,10.7260291 15.8968201,11.5132432 16.5138563,12.5932535 L16.1006957,13.5264148 C16.0293562,13.6879149 16.1021608,13.8768011 16.2632101,13.9483661 L17.0586512,14.3016826 C17.0724007,14.4428965 17.0796136,14.5855755 17.0796136,14.7301705 Z M12.5067847,10.0102673 C12.6465335,9.87637894 12.8682156,9.88167587 13.0019913,10.0216501 C13.1355416,10.1619624 13.13047,10.38387 12.9903831,10.5176456 C12.8506343,10.651534 12.6289522,10.6463498 12.4951765,10.5061502 C12.3617389,10.3660633 12.3668104,10.1441557 12.5067847,10.0102673 Z M16.6068343,13.3098042 C16.6851613,13.1327515 16.8920797,13.0528467 17.068907,13.1313991 C17.2457343,13.2098387 17.3255264,13.4172079 17.2470867,13.5942606 C17.1687598,13.771426 16.9618414,13.8513308 16.7849014,13.7727784 C16.6082995,13.6943388 16.5285074,13.4870823 16.6068343,13.3098042 L16.6068343,13.3098042 Z"/>
</svg>
