<svg width="24" height="24" viewBox="0 0 24 24">
  <path fill-rule="evenodd" d="M4,2.00246167 C4,1.44881738 4.44483697,1 4.9955775,1 L14.0044225,1 C14.5542648,1 15.3127724,1.31277239 15.7057732,1.70577316 L19.2942268,5.29422684 C19.6840146,5.68401459 20,6.45470893 20,6.9999602 L20,22.0000398 C20,22.5523026 19.5553691,23 18.9991283,23 L5.00087166,23 C4.4481055,23 4,22.5605417 4,21.9975383 L4,2.00246167 Z M11.8745807,16.8318863 L11.8403097,16.7944997 C10.9492635,15.8442582 9.30113971,15.1713003 9.36968172,13.8939264 C9.39460609,13.4297101 9.55661448,12.2053005 12.5350764,10.7223007 C14.9745489,9.50723773 16.9279962,9.84060115 17.2675907,10.5821011 C17.7505004,11.6413867 16.2238828,13.6104118 13.6878284,13.8939264 C12.7220092,14.0029706 12.2141752,13.629105 12.0864378,13.4889055 C11.9524693,13.3424748 11.933776,13.3362437 11.8839273,13.3642836 C11.8029231,13.4079013 11.8527719,13.5387542 11.8839273,13.6166429 C11.9587004,13.8129223 12.270255,14.1618634 12.7998978,14.336334 C13.2641142,14.4889957 14.3981729,14.5731155 15.7690131,14.0434727 C17.3049773,13.4484034 18.5044625,11.797164 18.1524058,10.4169772 C17.794118,9.01186592 15.4636896,8.55076512 13.2609986,9.33276716 C11.9493538,9.80009905 10.5286648,10.5291368 9.50676574,11.4856094 C8.29170282,12.6196681 8.09853897,13.6104118 8.17954316,14.0216638 C8.46305785,15.489086 10.4850472,16.4455586 11.2950891,17.1527875 C11.254587,17.1745963 11.2172005,17.1964052 11.1829295,17.2150984 C10.7779085,17.4144934 9.23571324,18.2214198 8.84938554,19.0750794 C8.41320911,20.0408986 8.91792756,20.7356654 9.25440652,20.8291318 C10.2949989,21.1188775 11.3605156,20.5985814 11.9368916,19.7418062 C12.5101521,18.8850311 12.44161,17.7727812 12.1767886,17.2649472 C12.450503,17.0710606 12.6845866,16.9821735 12.8790395,16.9982857 C14.2687634,17.1134373 14.5396255,18.0264159 14.4866612,18.3878192 C14.4336969,18.7492225 14.1439512,18.9486175 14.0473692,19.0109284 C13.9507873,19.0701238 13.9196319,19.0919326 13.9289785,19.1355502 C13.9414407,19.2009767 13.9850583,19.1978611 14.0691781,19.185399 C14.1844533,19.1667057 14.7982158,18.8894221 14.8231402,18.2226953 C14.8605267,17.3659201 14.2227564,16.4866497 12.7802586,16.4959964 C12.5150332,16.5068923 12.1767886,16.5910105 11.8745807,16.8318863 Z M11.2016227,19.4240205 C10.7436375,19.9256234 10.0987195,20.1156717 9.82455143,19.9536633 C9.52857456,19.7823083 9.64384977,19.0439239 10.2077636,18.5111656 C10.5504736,18.1871488 10.9959967,17.8880564 11.288858,17.7042392 C11.3542845,17.6637371 11.453982,17.6045417 11.5723727,17.5328841 C11.591066,17.5204219 11.6035282,17.5141909 11.6035282,17.5141909 C11.625337,17.5017287 11.6502614,17.4861509 11.6751857,17.4705732 C11.8839273,18.2307664 11.6845324,18.8974933 11.2016227,19.4240205 L11.2016227,19.4240205 Z"/>
</svg>
