<svg width="24" height="24" viewBox="0 0 24 24">
  <path fill-rule="evenodd" d="M4,2.00246167 C4,1.44881738 4.44483697,1 4.9955775,1 L14.0044225,1 C14.5542648,1 15.3127724,1.31277239 15.7057732,1.70577316 L19.2942268,5.29422684 C19.6840146,5.68401459 20,6.45470893 20,6.9999602 L20,22.0000398 C20,22.5523026 19.5553691,23 18.9991283,23 L5.00087166,23 C4.4481055,23 4,22.5605417 4,21.9975383 L4,2.00246167 Z M7.78,19.61 L11.77,17.46 L11.77,15.9 L7.84,13.77 L7.18,15.1 L10.35,16.62 L10.35,16.74 L7.17,18.28 L7.78,19.61 Z M17.69,18.56 L12.55,18.56 L12.55,19.87 L17.69,19.87 L17.69,18.56 Z"/>
</svg>
