<svg width="24" height="24" viewBox="0 0 24 24">
  <path fill-rule="evenodd" d="M4,2.00246167 C4,1.44881738 4.44483697,1 4.9955775,1 L14.0044225,1 C14.5542648,1 15.3127724,1.31277239 15.7057732,1.70577316 L19.2942268,5.29422684 C19.6840146,5.68401459 20,6.45470893 20,6.9999602 L20,22.0000398 C20,22.5523026 19.5553691,23 18.9991283,23 L5.00087166,23 C4.4481055,23 4,22.5605417 4,21.9975383 L4,2.00246167 Z M15.3664441,17.5861925 C16.1013032,16.6196555 16.1877572,15.6214288 15.6186016,13.7675791 C15.2583765,12.5950589 14.6604029,11.6919013 15.0998775,10.9630374 C15.5681701,10.1866388 16.5623913,10.9392701 15.7338736,11.977109 L15.8995772,12.1038679 C16.8937984,12.2306269 17.3837045,10.7332868 16.6416408,10.3054753 C14.6820164,9.18048966 12.9673451,11.3433142 13.7238177,13.8468035 C14.0480203,14.9084097 14.5019039,16.0333954 14.1344743,16.9286304 C13.8174763,17.6971066 13.2050936,18.1486853 12.7944371,18.1645302 C11.9371014,18.2120648 12.506257,16.0492402 13.4932737,15.5105147 C13.5797277,15.4629801 13.7022042,15.3996006 13.5869322,15.2411519 C12.3693715,15.0906257 11.6561258,15.7085755 11.2454692,16.5721209 C10.049522,19.0835326 13.5148872,20.0104574 15.3664441,17.5861925 Z M18.8726995,20.0824592 C16.8091038,19.8405869 12.358211,20.1630833 10.393524,20.630703 C9.80906331,20.7677639 9.97091395,21.045917 10.2676401,20.9935114 C10.272136,20.9935114 10.3980198,20.965293 10.4025157,20.965293 C12.0165263,20.6831086 15.9324128,20.4372052 18.2163052,20.828232 C18.4905521,20.8725753 19.3132929,20.1348648 18.8726995,20.0824592 Z"/>
</svg>
