<svg width="24" height="24" viewBox="0 0 24 24">
  <path fill-rule="evenodd" d="M4,2.00246167 C4,1.44881738 4.44483697,1 4.9955775,1 L14.0044225,1 C14.5542648,1 15.3127724,1.31277239 15.7057732,1.70577316 L19.2942268,5.29422684 C19.6840146,5.68401459 20,6.45470893 20,6.9999602 L20,22.0000398 C20,22.5523026 19.5553691,23 18.9991283,23 L5.00087166,23 C4.4481055,23 4,22.5605417 4,21.9975383 L4,2.00246167 Z M15.218375,19.1796944 L15.2184025,19.1797222 C15.8429275,18.9136111 17.0713525,18.5125 17.7349275,19.8241667 C17.8878275,20.1330556 18.2241525,18.4958333 17.0009525,16.9511111 C16.9938025,16.9419444 16.9866525,16.9330556 16.9795025,16.9244444 C16.9982025,16.8622222 17.0155275,16.7988889 17.0314775,16.7347222 C17.6433525,14.3558333 16.1751275,11.51375 13.6979275,10 C14.7685025,11.4827778 15.2577275,13.2747222 14.8295525,14.8502778 C14.7899525,14.9986111 14.7429275,15.1416667 14.6893025,15.2794444 C14.6384275,15.2447222 14.5751775,15.2058333 14.4932275,15.1591667 C14.4932275,15.1591667 12.0157525,13.6144444 9.3548525,10.8958333 C9.2938025,10.8341667 10.7925525,13.0583333 12.4744525,14.8502778 C11.6794275,14.3866667 9.446675,12.7494444 8.0398025,11.4519444 C8.22331,11.7299722 8.4068175,12.0389167 8.651595,12.2860833 C9.813745,13.7996944 11.373545,15.6533056 13.20862,17.0744167 C13.20917,17.07525 13.20972,17.0758056 13.210545,17.0766389 C11.92052,17.8830278 10.087425,17.9424722 8.253945,17.0744167 C7.79519,16.8583056 7.367015,16.6110833 7,16.3021944 C7.76461,17.53775 8.9573675,18.6191389 10.394875,19.2369167 C12.170275,20.0055278 13.93495,19.9285833 15.218375,19.1796944 Z"/>
</svg>
