<svg width="24" height="24" viewBox="0 0 24 24">
  <path fill-rule="evenodd" d="M13,17 L13,19 L19,14.5 L13,10 L13,12 C12.9997512,12.0000658 7.49079208,13.4578753 7.02942446,20 C10.0146448,16.7614748 12.9998652,16.9999892 13,17 Z M4,2.00246167 C4,1.44881738 4.44483697,1 4.9955775,1 L14.0044225,1 C14.5542648,1 15.3127724,1.31277239 15.7057732,1.70577316 L19.2942268,5.29422684 C19.6840146,5.68401459 20,6.45470893 20,6.9999602 L20,22.0000398 C20,22.5523026 19.5553691,23 18.9991283,23 L5.00087166,23 C4.4481055,23 4,22.5605417 4,21.9975383 L4,2.00246167 Z"/>
</svg>
