<svg width="24" height="24" viewBox="0 0 24 24">
  <path fill-rule="evenodd" d="M14.5105049,18.8494665 C14.3434637,19.8061262 14.1348163,20.2609656 12.9977982,20.2609656 L12.0649857,20.2609656 C11.7353452,20.2609656 11.7213179,20.2118702 11.7213179,19.9804205 L11.7213179,18.1077819 L12.3525444,18.1077819 C13.0328663,18.1077819 13.1100162,18.332218 13.1100162,18.9283763 L13.2853569,18.9283763 L13.2853569,17.069765 L13.1100162,17.069765 C13.1100162,17.672937 13.0328663,17.8903595 12.3525444,17.8903595 L11.7213179,17.8903595 L11.7213179,16.2070888 C11.7213179,15.9756391 11.7353452,15.9265437 12.0649857,15.9265437 L12.9697436,15.9265437 C14.0428287,15.9265437 14.2321966,16.3122933 14.3444146,17.2871875 L14.5197553,17.2871875 L14.3233738,15.7091213 L10.3747014,15.7091213 L10.3747014,15.9265437 L10.5430285,15.9265437 C11.0830778,15.9265437 11.0971051,16.0036936 11.0971051,16.2561842 L11.0971051,19.9313251 C11.0971051,20.1838157 11.0830778,20.2609656 10.5430285,20.2609656 L10.3747014,20.2609656 L10.3747014,20.478388 L14.4215645,20.478388 L14.6874202,18.8452744 C14.7288013,18.8445987 14.7689259,18.8442128 14.8073141,18.8442128 C15.0668183,18.8442128 15.4525678,18.8442128 15.7050584,18.8652537 L15.7050584,18.6478312 C15.3824315,18.6408176 15.2631999,18.4514497 15.2631999,18.3252044 C15.2631999,18.2620817 15.2842407,18.2340272 15.3333361,18.1568773 L16.3292712,16.6840155 L17.4374244,18.3602725 C17.4514517,18.388327 17.4724925,18.4163815 17.4724925,18.4374224 C17.4724925,18.5215859 17.3181927,18.6408176 17.0166067,18.6478312 L17.0166067,18.8652537 C17.2620837,18.8442128 17.7740785,18.8442128 18.0405964,18.8442128 C18.3351687,18.8442128 18.6577956,18.8512264 18.9523679,18.8652537 L18.9523679,18.6478312 L18.819109,18.6478312 C18.4544004,18.6478312 18.3071142,18.6127631 18.159828,18.3953406 L16.6799526,16.1579934 L17.6408196,14.7482543 C17.7951194,14.5238182 18.0335827,14.2993821 18.6577956,14.2923685 L18.6577956,14.0749461 C18.3842641,14.0819597 18.0546236,14.0959869 17.8792829,14.0959869 C17.5987378,14.0959869 17.2620837,14.0959869 16.9815386,14.0749461 L16.9815386,14.2923685 C17.2620837,14.2993821 17.4163835,14.453682 17.4163835,14.6149954 C17.4163835,14.6851317 17.4023563,14.6991589 17.3532609,14.7763088 L16.5537073,15.9616119 L15.6489494,14.6079818 C15.6349221,14.5869409 15.599854,14.5308319 15.599854,14.5027773 C15.599854,14.4186138 15.7541538,14.2993821 16.0557398,14.2923685 L16.0557398,14.0749461 C15.8102628,14.0959869 15.298268,14.0959869 15.0317501,14.0959869 C14.8143277,14.0959869 14.3794828,14.0889733 14.1199786,14.0749461 L14.1199786,14.2923685 L14.2532375,14.2923685 C14.638987,14.2923685 14.7722459,14.3414639 14.9055048,14.5378455 L16.1960123,16.4876339 L15.0457774,18.1849318 C14.9475866,18.3252044 14.7371778,18.6478312 14.0288014,18.6478312 L14.0288014,18.8652537 C14.1817238,18.8610058 14.3500826,18.8541853 14.5105049,18.8494665 Z M4,2.00246167 C4,1.44881738 4.44483697,1 4.9955775,1 L14.0044225,1 C14.5542648,1 15.3127724,1.31277239 15.7057732,1.70577316 L19.2942268,5.29422684 C19.6840146,5.68401459 20,6.45470893 20,6.9999602 L20,22.0000398 C20,22.5523026 19.5553691,23 18.9991283,23 L5.00087166,23 C4.4481055,23 4,22.5605417 4,21.9975383 L4,2.00246167 Z M6.73462874,15.695094 L6.90996943,15.695094 C7.00816022,14.5659 7.11336463,14.3344503 8.17242239,14.3344503 C8.29866769,14.3344503 8.48102201,14.3344503 8.55115828,14.3484775 C8.69844446,14.376532 8.69844446,14.453682 8.69844446,14.6149954 L8.69844446,18.3111771 C8.69844446,18.5496404 8.69844446,18.6478312 7.96201357,18.6478312 L7.68146846,18.6478312 L7.68146846,18.8652537 C7.96902719,18.8442128 8.68441721,18.8442128 9.00704407,18.8442128 C9.32967094,18.8442128 10.0520746,18.8442128 10.3396333,18.8652537 L10.3396333,18.6478312 L10.0590882,18.6478312 C9.32265731,18.6478312 9.32265731,18.5496404 9.32265731,18.3111771 L9.32265731,14.6149954 C9.32265731,14.4747228 9.32265731,14.376532 9.44890261,14.3484775 C9.52605251,14.3344503 9.71542046,14.3344503 9.84867938,14.3344503 C10.9077371,14.3344503 11.0129416,14.5659 11.1111323,15.695094 L11.286473,15.695094 L11.1532141,14.1170278 L6.86788767,14.1170278 L6.73462874,15.695094 Z"/>
</svg>
