<svg width="24" height="24" viewBox="0 0 24 24">
  <path fill-rule="evenodd" d="M16.3361564,14.776 C16.4957032,14.4389001 16.5866666,14.0503731 16.5866666,13.624 C16.5866666,12.2 15.7626666,11.368 14.6106666,11.368 C13.3546666,11.368 12.2506666,12.392 12.2506666,13.872 C12.2506666,15.296 13.0826666,16.128 14.2346666,16.128 C14.752136,16.128 15.2424466,15.9541839 15.6401407,15.646274 L15.6346666,15.704 L16.7146666,15.776 L16.7146666,20.04 L15.6586666,20.04 L15.6586666,21 L18.9546666,21 L19.0506666,20.04 L17.9866666,20.04 L17.9866666,14.776 L16.3361564,14.776 Z M4,2.00246167 C4,1.44881738 4.44483697,1 4.9955775,1 L14.0044225,1 C14.5542648,1 15.3127724,1.31277239 15.7057732,1.70577316 L19.2942268,5.29422684 C19.6840146,5.68401459 20,6.45470893 20,6.9999602 L20,22.0000398 C20,22.5523026 19.5553691,23 18.9991283,23 L5.00087166,23 C4.4481055,23 4,22.5605417 4,21.9975383 L4,2.00246167 Z M11.528,16.064 L11.648,15.008 C10.592,14.976 10.256,14.848 10.256,14.224 L10.256,12.52 L11.576,12.52 L11.576,11.496 L10.256,11.496 L10.256,10.216 L8.984,10.328 L8.984,11.496 L8.336,11.496 L8.232,12.52 L8.984,12.52 L8.984,14.424 C8.984,15.64 9.56,16.12 11.528,16.064 Z M14.4666666,15.072 C13.8986666,15.072 13.5306666,14.568 13.5306666,13.64 C13.5306666,12.8 13.8506666,12.424 14.3786666,12.424 C14.9466666,12.424 15.3146666,12.92 15.3146666,13.848 C15.3146666,14.696 15.0026666,15.072 14.4666666,15.072 Z M10.568,17.48 C10.968,17.48 11.136,17.68 11.136,18.392 L11.136,21 L12.336,21 L12.336,17.84 C12.336,17.776 12.336,17.72 12.328,17.664 C12.528,17.544 12.736,17.48 12.976,17.48 C13.384,17.48 13.552,17.68 13.552,18.392 L13.552,21 L14.824,21 L14.824,17.888 C14.824,16.856 14.392,16.368 13.576,16.368 C12.976,16.368 12.536,16.648 12.184,16.984 C12,16.568 11.648,16.368 11.136,16.368 C10.568,16.368 10.136,16.632 9.808,16.96 L9.736,16.464 L8.56,16.528 C8.624,17.536 8.648,18.92 8.648,21 L9.92,21 C9.92,19.68 9.912,18.536 9.888,17.68 C10.088,17.552 10.304,17.48 10.568,17.48 Z"/>
</svg>
