<svg width="24" height="24" viewBox="0 0 24 24">
  <path fill-rule="evenodd" d="M9.03450463,11 L7,11 L13,21 L19,11 L16.9504954,11 L17.3009907,11 L13,18 L8.69900925,11 L9.03450463,11 Z M4,2.00246167 C4,1.44881738 4.44483697,1 4.9955775,1 L14.0044225,1 C14.5542648,1 15.3127724,1.31277239 15.7057732,1.70577316 L19.2942268,5.29422684 C19.6840146,5.68401459 20,6.45470893 20,6.9999602 L20,22.0000398 C20,22.5523026 19.5553691,23 18.9991283,23 L5.00087166,23 C4.4481055,23 4,22.5605417 4,21.9975383 L4,2.00246167 Z M9.3134365,11 L13,17 L16.6865635,11 L14.4226158,11 L13.0152969,13.2686545 L11.5773842,11 L9.3134365,11 Z"/>
</svg>
