<svg width="24" height="24" viewBox="0 0 24 24">
  <path fill-rule="evenodd" d="M4,2.00246167 C4,1.44881738 4.44483697,1 4.9955775,1 L14.0044225,1 C14.5542648,1 15.3127724,1.31277239 15.7057732,1.70577316 L19.2942268,5.29422684 C19.6840146,5.68401459 20,6.45470893 20,6.9999602 L20,22.0000398 C20,22.5523026 19.5553691,23 18.9991283,23 L5.00087166,23 C4.4481055,23 4,22.5605417 4,21.9975383 L4,2.00246167 Z M7,1 L7,3 L9,3 L9,1 L7,1 Z M9,3 L9,5 L11,5 L11,3 L9,3 Z M7,5 L7,7 L9,7 L9,5 L7,5 Z M9,7 L9,9 L11,9 L11,7 L9,7 Z M7,9 L7,11 L9,11 L9,9 L7,9 Z M9,11 L9,13 L11,13 L11,11 L9,11 Z M7,13 L7,15 L9,15 L9,13 L7,13 Z M7,17 L7,19 L11,19 L11,17 C11,15.8877296 10.1045695,15 9,15 C7.88772964,15 7,15.8954305 7,17 Z M8,17 C8,16.4477153 8.44386482,16 9,16 C9.55228475,16 10,16.4438648 10,17 L10,18 L8,18 L8,17 Z"/>
</svg>
